<svg width="460" height="444" viewBox="0 0 460 444" fill="none" xmlns="http://www.w3.org/2000/svg">
<g clip-path="url(#clip0_31_2100)">
<path d="M446.81 32.19C447.78 39.25 442.52 44.2 431.55 45.71L409.49 48.75L403.86 7.89996L424.75 5.01996C435.49 3.53996 441.34 7.18996 442.21 13.5C442.75 17.41 441.2 20.84 437.95 23.13C442.78 24.13 446.13 27.24 446.81 32.2V32.19ZM416.44 14.67L417.53 22.55L425.47 21.46C429.32 20.93 431.12 19.31 430.76 16.69C430.41 14.12 428.24 13.05 424.38 13.58L416.44 14.67ZM434.96 32.52C434.57 29.72 432.29 28.67 428.32 29.21L418.63 30.55L419.77 38.84L429.46 37.5C433.43 36.95 435.34 35.32 434.96 32.52Z" fill="#E0E0E0"/>
<path d="M64.9501 267.64H20.5601V274.67H64.9501V267.64Z" fill="#EBEBEB"/>
<path d="M64.9501 293.24H20.5601V300.27H64.9501V293.24Z" fill="#EBEBEB"/>
<path d="M42.7501 280.89H20.5601V287.92H42.7501V280.89Z" fill="#EBEBEB"/>
<path d="M182.46 327.24H148.39V299.26H166.04V305.16H154.3V321.34H176.56V315.46H182.46V327.24Z" fill="#EBEBEB"/>
<path d="M202.11 327.24H187.58V321.34H196.21V305.16H173.94V312.7H168.04V299.26H202.11V327.24Z" fill="#EBEBEB"/>
<path d="M451.38 90.1299H457.27L449.02 131.37H443.13L451.38 90.1299Z" fill="#EBEBEB"/>
<path d="M7.52002 41.55H99.41V174.79H8.15002L7.52002 41.55Z" fill="#E0E0E0"/>
<path d="M0.619926 174.16H91.6799L91.6799 42.1702H0.619926L0.619926 174.16Z" fill="white"/>
<path d="M92.31 41.55V174.79H0V41.55H92.31ZM91.06 173.54V42.8H1.25V173.53H91.06V173.54Z" fill="#E0E0E0"/>
<path d="M80.3699 56.47H11.9399V159.87H80.3699V56.47Z" fill="white"/>
<path d="M11.9399 56.4699C11.9399 56.4699 11.9499 56.6499 11.9599 56.9799C11.9599 57.3299 11.9599 57.8199 11.9799 58.4499C11.9799 59.7599 11.9999 61.6599 12.0199 64.1299C12.0399 69.0999 12.0699 76.3199 12.0999 85.4399C12.1399 103.67 12.1899 129.48 12.2499 159.87L11.9499 159.57C32.8599 159.57 56.0199 159.55 80.3699 159.54L80.0399 159.87C80.0599 120.87 80.0899 84.9099 80.1099 56.4699L80.3699 56.7299C59.5399 56.6699 42.4699 56.6299 30.5799 56.5899C24.6399 56.5599 19.9899 56.5399 16.8099 56.5199C15.2399 56.5099 14.0299 56.4999 13.1899 56.4899C12.3699 56.4899 11.9299 56.4599 11.9299 56.4599C11.9299 56.4599 12.3299 56.4399 13.1299 56.4299C13.9599 56.4299 15.1499 56.4099 16.6999 56.3999C19.8699 56.3799 24.4899 56.3599 30.4099 56.3299C42.3399 56.2999 59.4699 56.2499 80.3599 56.1899H80.6199V56.4499C80.6399 84.8799 80.6599 120.84 80.6899 159.85V160.18H80.3599C56.0099 160.18 32.8399 160.16 11.9399 160.15H11.6399V159.85C11.6999 129.38 11.7499 103.51 11.7899 85.2199C11.8199 76.1299 11.8499 68.9299 11.8699 63.9799C11.8899 61.5399 11.8999 59.6599 11.9099 58.3599C11.9099 57.7399 11.9199 57.2699 11.9299 56.9199C11.9299 56.5999 11.9499 56.4499 11.9499 56.4499L11.9399 56.4699Z" fill="#E0E0E0"/>
<path d="M0.37004 174.16C0.30004 174.1 0.87004 173.24 1.84004 171.89C2.82004 170.54 4.20004 168.7 5.79004 166.72C7.38004 164.73 8.88004 162.99 10.01 161.76C11.14 160.53 11.88 159.81 11.94 159.87C12.08 159.99 9.46004 163.17 6.30004 167.13C3.14004 171.1 0.52004 174.28 0.37004 174.17V174.16Z" fill="#E0E0E0"/>
<path d="M0.630048 42.1802C0.770048 42.0702 3.42005 45.1802 6.54005 49.1202C9.66005 53.0702 12.08 56.3602 11.94 56.4702C11.8 56.5802 9.15005 53.4702 6.03005 49.5202C2.91005 45.5702 0.490048 42.2802 0.630048 42.1702V42.1802Z" fill="#E0E0E0"/>
<path d="M91.6998 42.28C87.7198 47.19 83.7498 52.09 79.7698 57L91.6998 42.28Z" fill="white"/>
<path d="M79.7699 57.0001C79.6299 56.8901 82.1899 53.5001 85.4799 49.4401C88.7699 45.3801 91.5599 42.1701 91.6999 42.2901C91.8399 42.4001 89.2799 45.7901 85.9899 49.8501C82.6999 53.9101 79.9099 57.1201 79.7699 57.0001Z" fill="#E0E0E0"/>
<path d="M91.68 174.16C91.54 174.27 88.92 171.19 85.83 167.29C82.74 163.38 80.35 160.12 80.49 160.01C80.63 159.9 83.25 162.97 86.34 166.88C89.43 170.79 91.82 174.04 91.68 174.16Z" fill="#E0E0E0"/>
<path d="M50.5701 109.68H38.5301L37.1001 113C36.6301 114.11 36.4001 115.02 36.4001 115.74C36.4001 116.7 36.7901 117.4 37.5601 117.85C38.0101 118.12 39.1301 118.32 40.9001 118.45V119.38H29.5601V118.45C30.7801 118.27 31.7901 117.76 32.5801 116.93C33.3701 116.1 34.3401 114.39 35.5001 111.79L47.6901 84.5901H48.1701L60.4601 112.55C61.6301 115.2 62.6001 116.87 63.3501 117.55C63.9201 118.07 64.7201 118.37 65.7601 118.46V119.39H49.2701V118.46H49.9501C51.2701 118.46 52.2001 118.28 52.7401 117.91C53.1101 117.64 53.2901 117.26 53.2901 116.75C53.2901 116.45 53.2401 116.14 53.1401 115.82C53.1101 115.67 52.8601 115.04 52.3901 113.93L50.5801 109.68H50.5701ZM49.7201 107.82L44.6401 96.0801L39.4101 107.82H49.7201Z" fill="#E0E0E0"/>
<path d="M197.92 431.46C196.3 430.07 192.68 425.66 195.47 420.53C196.49 418.65 198.67 417.72 200.64 416.89C202.61 416.06 204.68 415.34 206.3 413.96C209.37 411.35 210.22 407.01 212.26 403.52C214.6 399.52 218.97 396.52 223.58 396.73C228.86 396.97 233.27 401.29 235.27 406.21C237.27 411.13 237.34 416.6 237.38 421.91C237.4 424.85 237.27 428.16 235.11 430.15C233.12 431.98 230.13 432 227.43 431.92C217.8 431.62 208.18 431.33 198.55 431.03" fill="#F5F5F5"/>
<path d="M253.15 352.05H177.2L190.88 433.62C191.48 437.18 194.06 439.93 197.36 440.88C197.45 440.91 197.54 440.93 197.63 440.95C197.86 441.01 198.07 441.08 198.31 441.12C198.81 441.22 199.33 441.28 199.85 441.3C199.85 441.33 199.85 441.35 199.86 441.38L200.23 441.32H234.08C234.72 441.32 235.34 441.25 235.94 441.13C239.94 440.51 243.14 437.3 243.62 433.16L250.21 376.95L250.51 374.72H250.47L253.08 352.46L253.13 352.04L253.15 352.05ZM238.82 404.08H231.03L231.82 380.41H240.85L238.83 404.08H238.82ZM241.6 380.41H249.06L246.28 404.08H239.57L241.59 380.41H241.6ZM219.33 430.33L218.86 409.76H230.08L229.4 430.33H219.33ZM207.2 409.76H218.11L218.58 430.33H208.8L207.2 409.76ZM208.04 430.33H198.9C198.03 424.78 196.9 417.56 195.68 409.76H206.45L208.05 430.33H208.04ZM206.76 404.09L204.92 380.42H217.43L217.98 404.09H206.76ZM218.73 404.09L218.18 380.42H231.05L230.26 404.09H218.72H218.73ZM218.05 374.74L217.55 352.82H231.98L231.25 374.74H218.06H218.05ZM217.3 374.74H204.48L202.78 352.82H216.8L217.31 374.74H217.3ZM203.72 374.74H190.15C189.67 371.71 189.21 368.85 188.8 366.27C187.38 357.41 186.85 354.07 186.56 352.82H202.01L203.71 374.74H203.72ZM204.16 380.42L206 404.09H194.78C194.4 401.69 194.02 399.26 193.64 396.83C192.76 391.24 191.88 385.65 191.05 380.42H204.16ZM194.02 404.09H186.69L182.72 380.42H190.29C191.45 387.74 192.73 395.88 194.02 404.09ZM194.91 409.77C196.03 416.89 197.13 423.9 198.13 430.34H191.09L187.64 409.77H194.91ZM230.15 430.34L230.83 409.77H238.33L236.57 430.34H230.15ZM232 374.74L232.73 352.82H243.2L241.33 374.74H232ZM185.85 352.82C186.15 354.41 187.54 363.03 189.39 374.74H181.77L178.09 352.82H185.85ZM243.21 430.34H237.34L239.1 409.77H245.63L243.22 430.34H243.21ZM249.73 374.74H242.09L243.96 352.82H252.3L249.73 374.74Z" fill="#E0E0E0"/>
<path d="M459.16 443.74C459.16 443.88 356.78 444 230.52 444C104.26 444 1.86011 443.88 1.86011 443.74C1.86011 443.6 104.22 443.48 230.52 443.48C356.82 443.48 459.16 443.6 459.16 443.74Z" fill="#263238"/>
<path d="M383.01 0.26001H54.3999V253.71H383.01V0.26001Z" fill="white"/>
<path d="M355.98 160.58H73.7V169.08H355.98V160.58Z" fill="#EBEBEB"/>
<path d="M355.85 149.32H73.5698V157.82H355.85V149.32Z" fill="#EBEBEB"/>
<path d="M355.85 137.9H73.5698V146.4H355.85V137.9Z" fill="#EBEBEB"/>
<path d="M355.85 126.48H73.5698V134.98H355.85V126.48Z" fill="#EBEBEB"/>
<path d="M355.98 172.26H73.7V180.76H355.98V172.26Z" fill="#EBEBEB"/>
<path d="M355.98 183.27H73.7V191.77H355.98V183.27Z" fill="#EBEBEB"/>
<path d="M355.98 194.72H73.7V203.22H355.98V194.72Z" fill="#EBEBEB"/>
<path d="M355.98 205.62H73.7V214.12H355.98V205.62Z" fill="#EBEBEB"/>
<path d="M355.98 216.09H73.7V224.59H355.98V216.09Z" fill="#EBEBEB"/>
<path d="M355.98 227.99H73.7V236.49H355.98V227.99Z" fill="#EBEBEB"/>
<path d="M383.34 0H54.3999V18.86H383.34V0Z" fill="#316CF5"/>
<path d="M77.3899 38.3899H75.3599V37.6499H80.2699V38.3899H78.2399V43.5899H77.3999V38.3899H77.3899Z" fill="#263238"/>
<path d="M80.1899 41.3398C80.1899 39.9998 81.1799 39.0498 82.5299 39.0498C83.8799 39.0498 84.8599 39.9998 84.8599 41.3398C84.8599 42.6798 83.8799 43.6398 82.5299 43.6398C81.1799 43.6398 80.1899 42.6798 80.1899 41.3398ZM84.0399 41.3398C84.0399 40.3798 83.3999 39.7598 82.5299 39.7598C81.6599 39.7598 81.0099 40.3798 81.0099 41.3398C81.0099 42.2998 81.6599 42.9298 82.5299 42.9298C83.3999 42.9298 84.0399 42.2998 84.0399 41.3398Z" fill="#263238"/>
<path d="M87.8799 39.6198C87.8799 39.2798 88.1399 39.0398 88.4599 39.0398C88.7799 39.0398 89.0199 39.2798 89.0199 39.6198C89.0199 39.9598 88.7699 40.2098 88.4599 40.2098C88.1499 40.2098 87.8799 39.9598 87.8799 39.6198ZM87.8799 43.0498C87.8799 42.7098 88.1399 42.4698 88.4599 42.4698C88.7799 42.4698 89.0199 42.7098 89.0199 43.0498C89.0199 43.3898 88.7699 43.6298 88.4599 43.6298C88.1499 43.6298 87.8799 43.3798 87.8799 43.0498Z" fill="#263238"/>
<path d="M73.71 73.1999L74.02 72.5499C74.46 72.9399 75.2 73.2299 75.96 73.2299C76.97 73.2299 77.41 72.8399 77.41 72.3199C77.41 70.8899 73.85 71.7899 73.85 69.6099C73.85 68.6999 74.55 67.9299 76.1 67.9299C76.79 67.9299 77.5 68.1099 77.99 68.4499L77.71 69.1199C77.2 68.7899 76.62 68.6399 76.1 68.6399C75.1 68.6399 74.67 69.0599 74.67 69.5699C74.67 70.9999 78.23 70.1099 78.23 72.2599C78.23 73.1599 77.51 73.9299 75.96 73.9299C75.06 73.9299 74.18 73.6299 73.71 73.1899V73.1999Z" fill="#263238"/>
<path d="M83.48 69.4199V73.8699H82.72V73.1999C82.39 73.6599 81.84 73.9199 81.21 73.9199C80.06 73.9199 79.3 73.2899 79.3 71.9799V69.4199H80.11V71.8899C80.11 72.7599 80.55 73.1999 81.31 73.1999C82.15 73.1999 82.69 72.6799 82.69 71.7199V69.4199H83.5H83.48Z" fill="#263238"/>
<path d="M89.61 71.6501C89.61 73.0101 88.66 73.9201 87.36 73.9201C86.71 73.9201 86.13 73.6701 85.77 73.1601V73.8601H85V67.6401H85.81V70.0901C86.18 69.6101 86.73 69.3801 87.36 69.3801C88.66 69.3801 89.61 70.2901 89.61 71.6401V71.6501ZM88.8 71.6501C88.8 70.7001 88.15 70.0901 87.3 70.0901C86.45 70.0901 85.81 70.7001 85.81 71.6501C85.81 72.6001 86.46 73.2201 87.3 73.2201C88.14 73.2201 88.8 72.6001 88.8 71.6501Z" fill="#263238"/>
<path d="M89.1899 75.28L89.4499 74.66C89.6099 74.79 89.8399 74.87 90.0999 74.87C90.5299 74.87 90.7599 74.6 90.7599 74.09V69.43H91.5699V74.08C91.5699 74.99 91.0699 75.56 90.1499 75.56C89.7799 75.56 89.4099 75.48 89.1899 75.29V75.28ZM90.6199 68.05C90.6199 67.76 90.8499 67.52 91.1699 67.52C91.4899 67.52 91.7199 67.75 91.7199 68.03C91.7199 68.33 91.4899 68.57 91.1699 68.57C90.8499 68.57 90.6199 68.34 90.6199 68.05Z" fill="#263238"/>
<path d="M97.0999 71.9201H93.4899C93.5899 72.7001 94.2199 73.2201 95.0999 73.2201C95.6199 73.2201 96.0599 73.0401 96.3799 72.6801L96.8199 73.2001C96.4199 73.6701 95.7999 73.9201 95.0699 73.9201C93.6399 73.9201 92.6799 72.9701 92.6799 71.6501C92.6799 70.3301 93.6299 69.3901 94.9099 69.3901C96.1899 69.3901 97.1099 70.3101 97.1099 71.6801C97.1099 71.7501 97.1099 71.8501 97.0899 71.9201H97.0999ZM93.4899 71.3401H96.3399C96.2599 70.5901 95.6899 70.0601 94.9099 70.0601C94.1299 70.0601 93.5699 70.5801 93.4799 71.3401H93.4899Z" fill="#263238"/>
<path d="M97.8201 71.6501C97.8201 70.3201 98.8001 69.3901 100.17 69.3901C100.97 69.3901 101.63 69.7201 101.98 70.3401L101.37 70.7301C101.08 70.2901 100.65 70.0901 100.16 70.0901C99.2901 70.0901 98.6301 70.7001 98.6301 71.6501C98.6301 72.6001 99.2801 73.2201 100.16 73.2201C100.65 73.2201 101.08 73.0201 101.37 72.5801L101.98 72.9701C101.63 73.5901 100.97 73.9301 100.17 73.9301C98.8001 73.9301 97.8201 72.9801 97.8201 71.6601V71.6501Z" fill="#263238"/>
<path d="M105.58 73.61C105.34 73.82 104.97 73.92 104.61 73.92C103.71 73.92 103.2 73.43 103.2 72.53V70.09H102.44V69.43H103.2V68.46H104.01V69.43H105.29V70.09H104.01V72.5C104.01 72.98 104.26 73.25 104.71 73.25C104.94 73.25 105.17 73.17 105.34 73.04L105.59 73.62L105.58 73.61Z" fill="#263238"/>
<path d="M108.33 69.9699C108.33 69.6299 108.59 69.3999 108.9 69.3999C109.21 69.3999 109.45 69.6399 109.45 69.9699C109.45 70.2999 109.2 70.5499 108.9 70.5499C108.6 70.5499 108.33 70.3099 108.33 69.9699ZM108.33 73.3599C108.33 73.0199 108.59 72.7899 108.9 72.7899C109.21 72.7899 109.45 73.0299 109.45 73.3599C109.45 73.6899 109.2 73.9399 108.9 73.9399C108.6 73.9399 108.33 73.6999 108.33 73.3599Z" fill="#263238"/>
<path d="M65.9699 9.4399C65.9699 10.5699 65.0599 11.4799 63.9299 11.4799C62.7999 11.4799 61.8899 10.5699 61.8899 9.4399C61.8899 8.3099 62.7999 7.3999 63.9299 7.3999C65.0599 7.3999 65.9699 8.3099 65.9699 9.4399Z" fill="white"/>
<path d="M73.2399 9.4399C73.2399 10.5699 72.3299 11.4799 71.1999 11.4799C70.0699 11.4799 69.1599 10.5699 69.1599 9.4399C69.1599 8.3099 70.0699 7.3999 71.1999 7.3999C72.3299 7.3999 73.2399 8.3099 73.2399 9.4399Z" fill="white"/>
<path d="M80.4999 9.4399C80.4999 10.5699 79.5899 11.4799 78.4599 11.4799C77.3299 11.4799 76.4199 10.5699 76.4199 9.4399C76.4199 8.3099 77.3299 7.3999 78.4599 7.3999C79.5899 7.3999 80.4999 8.3099 80.4999 9.4399Z" fill="white"/>
<path d="M131.17 109.34C131.17 109.34 131.17 109.25 131.16 109.1C131.16 108.93 131.16 108.7 131.14 108.43C131.14 107.82 131.12 106.96 131.1 105.85C131.08 103.59 131.05 100.34 131.02 96.23L131.17 96.38C118.16 96.4 96.6099 96.45 72.2099 96.49C72.7299 95.97 72.3499 96.35 72.4699 96.23V97.9C72.4699 98.46 72.4699 99.01 72.4699 99.57C72.4699 100.68 72.4699 101.78 72.4699 102.88C72.4699 105.07 72.4699 107.22 72.4699 109.33L72.2099 109.07C88.9399 109.12 103.64 109.16 114.19 109.18C119.45 109.21 123.68 109.24 126.62 109.25C128.06 109.26 129.19 109.28 129.98 109.28C130.35 109.28 130.64 109.29 130.86 109.3C131.06 109.3 131.16 109.31 131.17 109.32C131.17 109.32 131.08 109.33 130.89 109.34C130.68 109.34 130.4 109.34 130.04 109.36C129.26 109.36 128.15 109.38 126.73 109.39C123.8 109.41 119.6 109.43 114.36 109.46C103.77 109.49 88.9999 109.53 72.1999 109.57H71.9399V109.31C71.9399 107.2 71.9399 105.04 71.9399 102.86C71.9399 101.77 71.9399 100.66 71.9399 99.55C71.9399 99 71.9399 98.44 71.9399 97.88V96.62V96.41V96.23V96.21C72.0599 96.09 71.6799 96.47 72.1999 95.95C96.5999 96 118.16 96.04 131.16 96.06H131.31V96.21C131.27 100.35 131.25 103.63 131.23 105.91C131.21 107 131.2 107.85 131.19 108.46C131.19 108.73 131.18 108.94 131.17 109.11C131.17 109.25 131.17 109.32 131.16 109.32L131.17 109.34Z" fill="#263238"/>
<path d="M167.57 109.34C167.57 109.34 167.56 109.25 167.55 109.09C167.55 108.9 167.54 108.67 167.53 108.4C167.52 107.76 167.5 106.88 167.48 105.78C167.46 103.48 167.42 100.24 167.38 96.2401L167.56 96.4201C159.31 96.4401 147.9 96.4701 135.29 96.5001C135.06 96.7301 135.6 96.1801 135.55 96.2401V97.1001V97.9501C135.55 98.5201 135.55 99.0801 135.55 99.6501C135.55 100.77 135.55 101.89 135.55 102.98C135.55 105.17 135.55 107.3 135.55 109.34L135.3 109.09C144.6 109.14 152.62 109.18 158.37 109.21C161.21 109.24 163.49 109.26 165.11 109.28C165.87 109.29 166.47 109.3 166.93 109.31C167.35 109.32 167.57 109.33 167.58 109.34C167.59 109.35 167.39 109.36 166.99 109.37C166.55 109.37 165.96 109.39 165.22 109.4C163.62 109.42 161.36 109.44 158.54 109.47C152.75 109.5 144.66 109.54 135.3 109.59H135.05V109.34C135.05 107.3 135.05 105.17 135.05 102.98C135.05 101.88 135.05 100.77 135.05 99.6501C135.05 99.0901 135.05 98.5201 135.05 97.9501V97.1001V96.6701V96.2701V96.2501C134.99 96.3001 135.54 95.7501 135.31 95.9901C147.92 96.0201 159.33 96.0501 167.58 96.0701H167.76V96.2501C167.72 100.29 167.68 103.58 167.66 105.9C167.64 106.99 167.63 107.85 167.61 108.48C167.6 109.06 167.58 109.36 167.57 109.35V109.34Z" fill="#263238"/>
<path d="M78.2599 101.09H76.1399V100.32H81.2599V101.09H79.1399V106.51H78.2699V101.09H78.2599Z" fill="#263238"/>
<path d="M81.8298 100.38C81.8298 100.07 82.0798 99.8201 82.3998 99.8201C82.7198 99.8201 82.9798 100.06 82.9798 100.36C82.9798 100.68 82.7398 100.93 82.3998 100.93C82.0598 100.93 81.8298 100.69 81.8298 100.38ZM81.9798 101.83H82.8298V106.51H81.9798V101.83Z" fill="#263238"/>
<path d="M87.0798 106.24C86.8198 106.46 86.4298 106.57 86.0598 106.57C85.1098 106.57 84.5698 106.05 84.5698 105.1V102.53H83.7798V101.83H84.5698V100.81H85.4198V101.83H86.7598V102.53H85.4198V105.07C85.4198 105.57 85.6898 105.86 86.1498 105.86C86.3998 105.86 86.6398 105.78 86.8098 105.64L87.0698 106.25L87.0798 106.24Z" fill="#263238"/>
<path d="M88.0999 99.95H88.9499V106.51H88.0999V99.95Z" fill="#263238"/>
<path d="M94.7799 104.45H90.9799C91.0899 105.27 91.7499 105.82 92.6799 105.82C93.2299 105.82 93.6899 105.63 94.0299 105.25L94.4999 105.8C94.0799 106.29 93.4299 106.56 92.6499 106.56C91.1399 106.56 90.1299 105.56 90.1299 104.17C90.1299 102.78 91.1299 101.78 92.4799 101.78C93.8299 101.78 94.7999 102.75 94.7999 104.19C94.7999 104.26 94.7999 104.37 94.7799 104.45ZM90.9799 103.84H93.9799C93.8899 103.05 93.2999 102.5 92.4799 102.5C91.6599 102.5 91.0699 103.05 90.9799 103.84Z" fill="#263238"/>
<path d="M121.78 102.22H127.39L124.59 105.03L121.78 102.22Z" fill="#263238"/>
<path d="M157.41 102.22H163.03L160.22 105.03L157.41 102.22Z" fill="#263238"/>
<path d="M372.32 242.27C372.32 240.74 372.25 183.87 372.13 90.03L372.32 90.22C292.16 90.24 184.52 90.26 66.4499 90.29H66.4299L66.6899 90.03C66.6899 143.69 66.6799 195.2 66.6799 242.27L66.4299 242.02C244.95 242.16 370.06 242.26 372.32 242.27C370.06 242.27 244.94 242.37 66.4299 242.52H66.1799V242.27C66.1799 195.2 66.1799 143.69 66.1699 90.03V89.77H66.4499C184.52 89.8 292.17 89.82 372.32 89.84H372.51V90.03C372.39 183.87 372.32 240.74 372.32 242.27Z" fill="#E0E0E0"/>
<path d="M372.32 84.2099C372.32 84.2099 372.31 83.6199 372.3 82.4799C372.3 81.3399 372.29 79.6599 372.28 77.4499C372.27 73.0399 372.25 66.5399 372.22 58.1699L372.32 58.2699C321.92 58.2999 203.73 58.3599 65.98 58.4299H65.96L66.22 58.1699C66.22 67.0899 66.22 75.9199 66.22 84.2099L65.96 83.9499C151.76 83.9899 228.31 84.0299 283.42 84.0599C310.99 84.0899 333.2 84.1199 348.53 84.1399C356.19 84.1599 362.13 84.1699 366.16 84.1799C368.17 84.1799 369.71 84.1899 370.74 84.1999C371.77 84.1999 372.31 84.2199 372.31 84.2199C372.31 84.2199 371.8 84.2299 370.77 84.2399C369.74 84.2399 368.22 84.2399 366.22 84.2599C362.2 84.2599 356.28 84.2799 348.65 84.2999C333.34 84.3199 311.15 84.3399 283.61 84.3799C228.45 84.4099 151.83 84.4499 65.96 84.4899H65.7V84.2299C65.7 75.9499 65.7 67.1099 65.7 58.1899V57.9299H65.98C203.73 57.9999 321.92 58.0599 372.32 58.0899H372.42V58.1899C372.39 66.5899 372.38 73.0999 372.36 77.5299C372.35 79.7299 372.34 81.3999 372.34 82.5399C372.34 83.6599 372.32 84.2299 372.32 84.2299V84.2099Z" fill="#E0E0E0"/>
<path d="M372.32 52.6799C372.32 52.6799 372.31 52.0899 372.3 50.9499C372.3 49.8099 372.29 48.1299 372.28 45.9199C372.27 41.5099 372.25 35.0099 372.22 26.6399L372.32 26.7399C321.92 26.7699 203.73 26.8299 65.98 26.8999H65.96L66.22 26.6399C66.22 35.5599 66.22 44.3899 66.22 52.6699L65.96 52.4099C151.76 52.4499 228.31 52.4899 283.42 52.5199C310.99 52.5499 333.2 52.5799 348.53 52.5999C356.19 52.6199 362.13 52.6299 366.16 52.6399C368.17 52.6399 369.71 52.6499 370.74 52.6599C371.77 52.6599 372.31 52.6799 372.31 52.6799C372.31 52.6799 371.8 52.6899 370.77 52.6999C369.74 52.6999 368.22 52.7099 366.22 52.7199C362.2 52.7199 356.28 52.7399 348.65 52.7599C333.34 52.7799 311.15 52.7999 283.61 52.8399C228.45 52.8699 151.83 52.9099 65.96 52.9499H65.7V52.6899C65.7 44.4099 65.7 35.5699 65.7 26.6599V26.3999H65.98C203.73 26.4699 321.92 26.5299 372.32 26.5599H372.42V26.6599C372.39 35.0599 372.38 41.5699 372.36 45.9999C372.35 48.1999 372.34 49.8699 372.34 51.0099C372.34 52.1299 372.32 52.6999 372.32 52.6999V52.6799Z" fill="#E0E0E0"/>
<path d="M292.69 97.3999C291.64 97.3999 290.79 98.1699 290.76 99.1299V105.91H290.77C290.9 107.18 292.05 108.18 293.46 108.18C294.87 108.18 296.03 107.18 296.15 105.91H296.16V100.45H295.63V105.68C295.63 106.79 294.65 107.69 293.45 107.69C292.25 107.69 291.27 106.79 291.27 105.68V99.1899C291.27 98.4699 291.9 97.8899 292.68 97.8899C293.46 97.8899 294.09 98.4699 294.09 99.1899V104.69C294 105.02 293.68 105.27 293.31 105.27C292.94 105.27 292.61 105.02 292.53 104.68V100.44H292V104.49V104.69H292.02C292.12 105.28 292.66 105.73 293.31 105.73C293.96 105.73 294.5 105.28 294.6 104.69H294.61V104.58C294.61 104.58 294.61 104.52 294.61 104.49V99.1299C294.58 98.1699 293.72 97.3999 292.68 97.3999H292.69Z" fill="#263238"/>
<path d="M221.32 100.39H213.61V101.61H221.32V100.39Z" fill="#263238"/>
<path d="M221.32 104.84H213.61V106.06H221.32V104.84Z" fill="#263238"/>
<path d="M217.47 102.69H213.61V103.91H217.47V102.69Z" fill="#263238"/>
<path d="M250.27 100.39H242.56V101.61H250.27V100.39Z" fill="#263238"/>
<path d="M250.27 104.84H242.56V106.06H250.27V104.84Z" fill="#263238"/>
<path d="M250.27 102.69H246.41V103.91H250.27V102.69Z" fill="#263238"/>
<path d="M235.99 100.39H228.28V101.61H235.99V100.39Z" fill="#263238"/>
<path d="M235.99 104.84H228.28V106.06H235.99V104.84Z" fill="#263238"/>
<path d="M235.99 102.69H228.28V103.91H235.99V102.69Z" fill="#263238"/>
<path d="M269.58 105.65H263.27V100.48H266.54V101.57H264.36V104.56H268.48V103.47H269.58V105.65Z" fill="#263238"/>
<path d="M273.21 105.65H270.53V104.56H272.12V101.57H268V102.96H266.91V100.48H273.21V105.65Z" fill="#263238"/>
<path d="M275.77 102.65H279.13L277.45 104.22L275.77 102.65Z" fill="#263238"/>
<path d="M199.83 103.19V100.28H200.79V103.15C200.79 104.21 201.27 104.66 202.1 104.66C202.93 104.66 203.4 104.2 203.4 103.15V100.28H204.34V103.19C204.34 104.69 203.49 105.51 202.09 105.51C200.69 105.51 199.83 104.69 199.83 103.19Z" fill="#263238"/>
<path d="M191.18 99.7H192.04L190.84 105.71H189.98L191.18 99.7Z" fill="#263238"/>
<path d="M183.09 104.07C183.09 105.11 182.23 105.72 180.62 105.72H177.37V99.71H180.45C182.03 99.71 182.8 100.35 182.8 101.28C182.8 101.86 182.51 102.32 181.99 102.59C182.67 102.83 183.09 103.35 183.09 104.08V104.07ZM179.05 100.93V102.09H180.22C180.79 102.09 181.08 101.89 181.08 101.51C181.08 101.13 180.79 100.93 180.22 100.93H179.05ZM181.37 103.88C181.37 103.47 181.06 103.27 180.48 103.27H179.05V104.49H180.48C181.06 104.49 181.37 104.29 181.37 103.88Z" fill="#263238"/>
<path d="M208.94 109.7C208.8 109.7 208.68 106.61 208.68 102.79C208.68 98.9699 208.8 95.8799 208.94 95.8799C209.08 95.8799 209.2 98.9699 209.2 102.79C209.2 106.61 209.08 109.7 208.94 109.7Z" fill="#E0E0E0"/>
<path d="M254.77 109.7C254.63 109.7 254.51 106.61 254.51 102.79C254.51 98.9699 254.63 95.8799 254.77 95.8799C254.91 95.8799 255.03 98.9699 255.03 102.79C255.03 106.61 254.91 109.7 254.77 109.7Z" fill="#E0E0E0"/>
<path d="M282.49 109.98C282.35 109.98 282.23 106.89 282.23 103.07C282.23 99.2499 282.35 96.1599 282.49 96.1599C282.63 96.1599 282.75 99.2499 282.75 103.07C282.75 106.89 282.63 109.98 282.49 109.98Z" fill="#E0E0E0"/>
<path d="M303.52 109.56C303.38 109.56 303.26 106.47 303.26 102.65C303.26 98.83 303.38 95.74 303.52 95.74C303.66 95.74 303.78 98.83 303.78 102.65C303.78 106.47 303.66 109.56 303.52 109.56Z" fill="#E0E0E0"/>
<path d="M205.39 106.2C205.39 106.34 204 106.46 202.29 106.46C200.58 106.46 199.19 106.34 199.19 106.2C199.19 106.06 200.58 105.94 202.29 105.94C204 105.94 205.39 106.06 205.39 106.2Z" fill="#263238"/>
<path d="M144.77 99.6999V105.71H143.92V100.44H142.56V99.6899H144.77V99.6999Z" fill="#263238"/>
<path d="M150.31 104.97V105.72H145.99V105.14L148.44 102.78C149.08 102.16 149.2 101.78 149.2 101.41C149.2 100.79 148.76 100.41 147.92 100.41C147.28 100.41 146.75 100.62 146.38 101.06L145.8 100.55C146.26 99.9699 147.06 99.6399 148 99.6399C149.25 99.6399 150.06 100.28 150.06 101.31C150.06 101.89 149.89 102.42 149.07 103.2L147.23 104.97H150.31Z" fill="#263238"/>
<path d="M372.32 116.2C372.32 116.34 303.72 116.46 219.13 116.46C134.54 116.46 65.9199 116.34 65.9199 116.2C65.9199 116.06 134.5 115.94 219.13 115.94C303.76 115.94 372.32 116.06 372.32 116.2Z" fill="#E0E0E0"/>
<path d="M353.43 131.37C353.43 131.51 291.14 131.63 214.31 131.63C137.48 131.63 75.1799 131.51 75.1799 131.37C75.1799 131.23 137.46 131.11 214.31 131.11C291.16 131.11 353.43 131.23 353.43 131.37Z" fill="#263238"/>
<path d="M353.43 142.64C353.43 142.78 291.14 142.9 214.31 142.9C137.48 142.9 75.1799 142.78 75.1799 142.64C75.1799 142.5 137.46 142.38 214.31 142.38C291.16 142.38 353.43 142.5 353.43 142.64Z" fill="#263238"/>
<path d="M353.43 153.92C353.43 154.06 291.14 154.18 214.31 154.18C137.48 154.18 75.1799 154.06 75.1799 153.92C75.1799 153.78 137.46 153.66 214.31 153.66C291.16 153.66 353.43 153.78 353.43 153.92Z" fill="#263238"/>
<path d="M353.43 165.19C353.43 165.33 291.14 165.45 214.31 165.45C137.48 165.45 75.1799 165.33 75.1799 165.19C75.1799 165.05 137.46 164.93 214.31 164.93C291.16 164.93 353.43 165.05 353.43 165.19Z" fill="#263238"/>
<path d="M353.43 176.46C353.43 176.6 291.14 176.72 214.31 176.72C137.48 176.72 75.1799 176.6 75.1799 176.46C75.1799 176.32 137.46 176.2 214.31 176.2C291.16 176.2 353.43 176.32 353.43 176.46Z" fill="#263238"/>
<path d="M353.43 187.74C353.43 187.88 291.14 188 214.31 188C137.48 188 75.1799 187.88 75.1799 187.74C75.1799 187.6 137.46 187.48 214.31 187.48C291.16 187.48 353.43 187.6 353.43 187.74Z" fill="#263238"/>
<path d="M353.43 199.01C353.43 199.15 291.14 199.27 214.31 199.27C137.48 199.27 75.1799 199.15 75.1799 199.01C75.1799 198.87 137.46 198.75 214.31 198.75C291.16 198.75 353.43 198.87 353.43 199.01Z" fill="#263238"/>
<path d="M353.63 209.89C353.63 210.03 291.34 210.15 214.51 210.15C137.68 210.15 75.3799 210.03 75.3799 209.89C75.3799 209.75 137.66 209.63 214.51 209.63C291.36 209.63 353.63 209.75 353.63 209.89Z" fill="#263238"/>
<path d="M353.83 220.76C353.83 220.9 291.54 221.02 214.71 221.02C137.88 221.02 75.5798 220.9 75.5798 220.76C75.5798 220.62 137.86 220.5 214.71 220.5C291.56 220.5 353.83 220.62 353.83 220.76Z" fill="#263238"/>
<path d="M75.7898 231.63C75.7898 231.49 138.08 231.37 214.91 231.37C291.74 231.37 354.04 231.49 354.04 231.63C354.04 231.77 291.76 231.89 214.91 231.89C138.06 231.89 75.7898 231.77 75.7898 231.63Z" fill="#263238"/>
<path d="M383.01 253.71C383.01 251.93 382.93 153.35 382.8 0.26L383.01 0.47C289.69 0.48 176.44 0.5 54.4199 0.52H54.3899L54.6499 0.26C54.6499 91.56 54.6299 177.94 54.6199 253.71L54.3899 253.48C249.37 253.62 380.94 253.71 383 253.71C380.94 253.71 249.37 253.81 54.3899 253.94H54.1599V253.71C54.1599 177.94 54.1399 91.56 54.1299 0.26V0H54.3899H54.4199C176.43 0.02 289.68 0.03 383.01 0.05H383.23V0.26C383.1 153.35 383.02 251.93 383.01 253.71Z" fill="#263238"/>
<path d="M254.55 78.9601V100.76C254.55 104.78 257.81 108.04 261.83 108.04H288.47C289.25 108.04 289.98 108.4 290.46 109.01L297 123.26L304.88 109.24C305.36 108.7 306.05 108.4 306.77 108.4H334.73C338.75 108.4 342.01 105.14 342.01 101.12V78.8301C342.01 74.8001 338.74 71.5401 334.72 71.5501L261.82 71.6801C257.81 71.6801 254.55 74.9401 254.55 78.9601Z" fill="#316CF5"/>
<path d="M272.85 97.7901H268.29V93.4901L278.79 82.0201L279 81.9601C280.47 81.5601 281.61 81.7201 282.4 82.4401C283.73 83.6501 283.37 85.8901 283.32 86.1401L283.28 86.3501L272.84 97.7701L272.85 97.7901ZM269.8 96.2801H272.19L281.87 85.6801C281.93 85.1201 281.92 84.0501 281.38 83.5601C281.03 83.2401 280.43 83.1701 279.6 83.3701L269.8 94.0801V96.2901V96.2801Z" fill="white"/>
<path d="M302.55 94.8899V96.3699H293.88V84.4299H302.31V85.9099H295.59V89.5799H301.58V91.0299H295.59V94.8799H302.55V94.8899Z" fill="white"/>
<path d="M313.49 83.72V96.38H311.92V94.95C311.19 95.97 310.03 96.49 308.7 96.49C306.06 96.49 304.13 94.63 304.13 91.87C304.13 89.11 306.06 87.26 308.7 87.26C309.98 87.26 311.11 87.74 311.86 88.71V83.73H313.5L313.49 83.72ZM311.87 91.86C311.87 89.93 310.56 88.69 308.83 88.69C307.1 88.69 305.78 89.94 305.78 91.86C305.78 93.78 307.09 95.05 308.83 95.05C310.57 95.05 311.87 93.79 311.87 91.86Z" fill="white"/>
<path d="M316.31 84.54C316.31 83.94 316.79 83.46 317.42 83.46C318.05 83.46 318.53 83.92 318.53 84.5C318.53 85.11 318.07 85.59 317.42 85.59C316.77 85.59 316.31 85.13 316.31 84.53V84.54ZM316.6 87.34H318.24V96.38H316.6V87.34Z" fill="white"/>
<path d="M326.45 95.8499C325.96 96.2799 325.21 96.4799 324.47 96.4799C322.64 96.4799 321.6 95.4699 321.6 93.6499V88.6899H320.07V87.3399H321.6V85.3599H323.24V87.3399H325.83V88.6899H323.24V93.5899C323.24 94.5599 323.75 95.1099 324.66 95.1099C325.14 95.1099 325.6 94.9599 325.94 94.6799L326.45 95.8599V95.8499Z" fill="white"/>
<path d="M96.82 415.79C94.21 415.66 93.44 411.97 94.41 409.54C95.38 407.11 97.31 404.95 97.34 402.33C97.36 400.06 95.92 397.99 95.78 395.73C95.53 391.64 99.48 388.3 99.65 384.21C99.78 381.02 97.57 377.98 98.1 374.83C98.68 371.45 102.2 369.23 103.01 365.9C103.87 362.35 101.41 358.6 102.35 355.07C103.29 351.56 107.43 348.98 106.84 345.39C106.64 344.2 105.93 343.17 105.61 342.01C104.87 339.33 106.33 336.54 108.1 334.4C109.87 332.26 112.04 330.36 113.13 327.81C114.81 323.89 113.64 319.11 115.63 315.33C117.28 312.18 120.96 310.07 121.42 306.54C123.29 309.71 121.46 313.75 121.89 317.4C122.17 319.78 123.4 321.93 124.16 324.21C125.71 328.85 125.19 334.14 122.77 338.4C121.17 341.21 118.7 343.86 118.83 347.09C118.98 351 122.9 353.84 123.59 357.69C124.58 363.2 118.71 368.16 119.52 373.7C119.73 375.13 120.38 376.48 120.51 377.92C120.93 382.82 115.37 386.28 114.52 391.12C113.9 394.68 115.96 398.37 115.11 401.89C114.45 404.6 112.11 407.03 112.69 409.76C112.94 410.94 113.72 411.94 114.19 413.05C115.09 415.18 114.75 417.82 113.21 419.55C111.67 421.27 108.96 421.89 106.89 420.85" fill="#316CF5"/>
<g opacity="0.5">
<path d="M114.19 413.05C113.72 411.94 112.94 410.94 112.69 409.76C112.11 407.03 114.46 404.6 115.11 401.89C115.96 398.37 113.9 394.69 114.52 391.12C115.37 386.28 120.92 382.81 120.51 377.92C120.39 376.48 119.73 375.13 119.52 373.7C118.71 368.16 124.58 363.2 123.59 357.68C122.9 353.83 118.98 350.99 118.83 347.08C118.7 343.85 121.17 341.2 122.77 338.39C125.19 334.14 125.71 328.85 124.16 324.2C123.4 321.92 122.17 319.77 121.89 317.39C121.47 313.74 123.29 309.7 121.42 306.53C120.96 310.05 117.28 312.17 115.63 315.32C113.64 319.1 114.81 323.87 113.13 327.8C112.04 330.35 109.87 332.25 108.1 334.39C106.33 336.53 104.87 339.32 105.61 342C105.93 343.16 106.65 344.2 106.84 345.38C107.43 348.97 103.29 351.55 102.35 355.06C101.41 358.59 103.87 362.34 103.01 365.89C102.2 369.22 98.68 371.44 98.1 374.82C97.56 377.97 99.78 381.01 99.65 384.2C99.48 388.3 95.53 391.63 95.78 395.72C95.92 397.99 97.36 400.05 97.34 402.32C97.31 404.94 95.39 407.1 94.41 409.53C93.44 411.96 94.21 415.65 96.82 415.78L106.89 420.83C108.95 421.87 111.67 421.25 113.21 419.53C114.75 417.81 115.09 415.16 114.19 413.03V413.05Z" fill="white"/>
</g>
<path d="M110.78 410.66C110.23 409.76 109.58 407.86 109.77 406.79C110.04 405.29 112.57 403.98 113.2 401.44C114.02 398.15 112.54 392.32 113.17 389C114.02 384.49 118.69 381.51 118.5 377.03C118.44 375.71 118.63 372.19 118.5 370.89C118 365.84 122.44 362.45 121.79 357.43C121.34 353.93 117.71 349.82 117.7 346.23C117.7 343.26 119.82 340.66 121.24 337.97C123.38 333.9 123.98 328.99 122.84 324.82C122.28 322.77 121.33 320.87 121.17 318.7C120.93 315.36 122.57 311.53 121.13 308.73C120.64 312 117.52 314.19 116.05 317.2C114.29 320.81 115.1 325.13 113.59 328.85C112.6 331.27 110.75 333.16 109.21 335.25C107.68 337.34 106.38 340 106.91 342.42C107.14 343.47 107.7 344.38 107.82 345.46C108.2 348.73 104.68 351.37 103.8 354.66C102.91 357.97 104.83 361.26 104 364.59C103.23 367.71 100.17 371.95 99.5901 375.1C99.0501 378.03 101.71 379.94 101.5 382.89C101.23 386.67 97.4401 391.25 97.5201 395C97.5601 397.08 99.3001 397.75 99.2101 399.84C99.1101 402.25 97.0901 407.05 96.2001 409.35C95.3201 411.65 95.3701 413.43 96.8301 415.82L108.07 421.4C113.09 419.01 112.87 414.13 110.78 410.69V410.66Z" fill="#316CF5"/>
<path d="M118.33 325.8C118.33 325.8 118.34 325.88 118.35 326.05C118.35 326.24 118.35 326.48 118.35 326.78C118.35 327.42 118.35 328.37 118.23 329.59C118.11 330.8 117.91 332.31 117.22 333.93C116.56 335.58 115.16 337.06 113.84 338.75C113.19 339.61 112.55 340.56 112.24 341.68C111.9 342.79 111.75 344.01 111.83 345.28C111.95 347.82 112.73 350.46 113.1 353.34C113.27 354.78 113.33 356.31 112.96 357.81C112.79 358.57 112.46 359.29 112.08 359.98C111.68 360.65 111.2 361.27 110.89 361.95C110.25 363.33 110.5 364.95 110.82 366.51C110.98 367.3 111.16 368.1 111.25 368.94C111.36 369.77 111.3 370.63 111.19 371.47C110.92 373.15 110.29 374.71 109.64 376.19C109 377.68 108.33 379.13 107.9 380.61C107.46 382.1 107.35 383.61 107.51 385.1C107.64 386.59 107.87 388.08 107.67 389.56C107.47 391.04 106.84 392.35 106.25 393.57C105.66 394.8 105.08 395.99 104.83 397.22C104.35 399.7 105.06 402.08 105.01 404.29C104.98 406.52 104.24 408.41 103.72 410.05C103.17 411.69 102.73 413.11 102.62 414.32C102.5 415.52 102.67 416.47 102.9 417.06C103.13 417.65 103.3 417.94 103.28 417.96C103.28 417.96 103.08 417.69 102.82 417.09C102.56 416.5 102.36 415.53 102.45 414.3C102.53 413.07 102.96 411.61 103.48 409.97C103.98 408.32 104.69 406.45 104.69 404.29C104.69 403.21 104.54 402.09 104.42 400.9C104.3 399.72 104.21 398.45 104.47 397.15C104.96 394.54 106.86 392.31 107.26 389.51C107.45 388.11 107.22 386.65 107.09 385.14C106.92 383.63 107.03 382.02 107.48 380.49C108.34 377.43 110.21 374.64 110.74 371.4C110.85 370.6 110.9 369.79 110.8 368.99C110.71 368.19 110.54 367.4 110.37 366.6C110.05 365.04 109.76 363.3 110.47 361.77C110.81 361.02 111.3 360.4 111.68 359.75C112.04 359.09 112.35 358.42 112.52 357.7C112.88 356.27 112.84 354.8 112.67 353.38C112.32 350.55 111.55 347.88 111.44 345.28C111.36 343.99 111.52 342.71 111.89 341.56C112.23 340.38 112.9 339.4 113.57 338.54C114.93 336.83 116.31 335.4 116.98 333.81C117.68 332.24 117.91 330.75 118.05 329.55C118.19 328.34 118.21 327.4 118.25 326.76C118.27 326.46 118.28 326.22 118.29 326.03C118.3 325.87 118.31 325.78 118.32 325.78L118.33 325.8Z" fill="#263238"/>
<path d="M80.77 417.07C77.11 417.61 75.03 412.7 75.72 409.07C76.4 405.44 78.4801 401.91 77.8001 398.28C77.2101 395.13 74.6501 392.66 73.8301 389.56C72.3601 383.96 76.93 378.26 76.04 372.54C75.35 368.08 71.4501 364.48 71.3301 359.97C71.2001 355.13 75.4801 351.09 75.6901 346.25C75.9101 341.1 71.47 336.57 71.81 331.43C72.15 326.31 77.18 321.6 75.38 316.79C74.78 315.2 73.51 313.96 72.75 312.44C70.99 308.93 72.2501 304.66 74.1201 301.22C75.9901 297.77 78.47 294.54 79.29 290.71C80.54 284.81 77.6201 278.52 79.3301 272.74C80.7601 267.93 85.28 263.99 84.95 258.98C88.4 262.86 86.98 268.96 88.57 273.9C89.61 277.13 91.9 279.77 93.58 282.71C97 288.72 97.73 296.19 95.54 302.75C94.09 307.08 91.4 311.43 92.46 315.87C93.74 321.25 99.94 324.11 101.96 329.26C104.84 336.63 98.06 345.11 100.71 352.56C101.39 354.48 102.67 356.17 103.23 358.13C105.15 364.8 98.4001 371.12 98.5501 378.06C98.6601 383.17 102.53 387.71 102.31 392.81C102.14 396.75 99.56 400.75 101.11 404.38C101.78 405.95 103.13 407.12 104.09 408.53C105.92 411.23 106.17 414.99 104.51 417.8C102.85 420.61 99.26 422.2 96.11 421.33" fill="#316CF5"/>
<g opacity="0.5">
<path d="M104.08 408.52C103.12 407.1 101.77 405.94 101.1 404.37C99.5601 400.75 102.13 396.74 102.3 392.8C102.52 387.69 98.6501 383.15 98.5401 378.05C98.3801 371.11 105.14 364.79 103.22 358.12C102.66 356.16 101.38 354.47 100.7 352.55C98.0601 345.09 104.83 336.61 101.95 329.25C99.9401 324.1 93.7401 321.24 92.4501 315.86C91.3901 311.42 94.0801 307.07 95.5301 302.74C97.7201 296.18 96.9901 288.71 93.5701 282.71C91.9001 279.76 89.6001 277.12 88.5601 273.9C86.9701 268.95 88.3901 262.86 84.9401 258.98C85.2601 263.99 80.7501 267.93 79.3201 272.74C77.6001 278.52 80.5301 284.82 79.2801 290.71C78.4601 294.55 75.9801 297.77 74.1101 301.22C72.2401 304.67 70.9801 308.94 72.7401 312.44C73.5001 313.96 74.7801 315.2 75.3701 316.79C77.1701 321.6 72.1401 326.31 71.8001 331.43C71.4601 336.57 75.9001 341.1 75.6801 346.25C75.4701 351.09 71.2001 355.13 71.3201 359.97C71.4401 364.48 75.3401 368.09 76.0301 372.54C76.9201 378.26 72.3601 383.96 73.8201 389.56C74.6301 392.66 77.2001 395.13 77.7901 398.28C78.4701 401.91 76.3901 405.44 75.7101 409.07C75.0301 412.7 77.1001 417.61 80.7601 417.07L96.0901 421.32C99.2301 422.19 102.82 420.6 104.49 417.79C106.15 414.98 105.9 411.22 104.07 408.52H104.08Z" fill="white"/>
</g>
<path d="M98.6901 406.14C97.6801 405.04 96.2601 402.59 96.2301 401.05C96.1901 398.9 99.3401 396.39 99.5201 392.7C99.7501 387.91 96.1101 380.24 96.0701 375.47C96.0101 368.98 101.67 363.58 100.18 357.42C99.7401 355.61 99.0301 350.68 98.5001 348.91C96.4201 342.05 101.64 336.14 99.3701 329.37C97.7801 324.64 91.6301 319.95 90.6401 314.97C89.8201 310.86 92.0601 306.67 93.2801 302.56C95.1301 296.33 94.6101 289.37 91.8901 283.9C90.5601 281.22 88.7101 278.85 87.9001 275.88C86.6601 271.32 87.8801 265.56 85.1101 262.08C85.3201 266.75 81.6101 270.64 80.3901 275.2C78.9301 280.68 81.2501 286.45 80.1701 292.02C79.4701 295.65 77.4101 298.77 75.8601 302.08C74.3001 305.39 73.2401 309.44 74.6301 312.64C75.2301 314.03 76.2601 315.13 76.7301 316.6C78.1501 321.02 74.0001 325.65 73.6801 330.46C73.3501 335.29 76.9101 339.33 76.6801 344.16C76.4601 348.7 73.3901 355.41 73.4401 359.93C73.4901 364.14 77.7001 366.06 78.2201 370.2C78.8801 375.51 74.8901 382.89 76.0201 388.07C76.6501 390.94 79.2401 391.39 79.6901 394.31C80.2101 397.68 78.7201 404.88 78.1301 408.3C77.5401 411.73 78.1001 414.17 80.7701 417.1L97.8701 421.75C104.17 417.06 102.52 410.36 98.6901 406.17V406.14Z" fill="#316CF5"/>
<path d="M85.9201 286.51C85.9201 286.51 86.4001 288.36 86.8001 291.79C86.9601 293.5 87.0901 295.65 86.5701 298.07C86.3101 299.28 85.8501 300.52 85.2301 301.77C84.6201 303.02 83.8701 304.29 83.2001 305.66C82.5301 307.03 81.9001 308.53 81.7701 310.19C81.5901 311.83 81.7201 313.58 82.1901 315.31C83.0501 318.81 84.8601 322.26 86.1601 326.14C86.7901 328.08 87.2901 330.17 87.1801 332.34C87.1501 333.43 86.8901 334.51 86.5601 335.56C86.1901 336.6 85.7001 337.58 85.4501 338.63C84.9301 340.75 85.7301 342.95 86.6101 345.03C87.0501 346.08 87.5201 347.14 87.8701 348.27C88.2401 349.39 88.4001 350.58 88.4701 351.77C88.5501 354.16 88.1001 356.48 87.6201 358.71C87.1401 360.95 86.6101 363.14 86.4201 365.32C86.3401 366.41 86.3201 367.5 86.4501 368.56C86.5501 369.62 86.8301 370.66 87.1201 371.68C87.7101 373.71 88.4401 375.71 88.5601 377.79C88.6901 379.88 88.1801 381.85 87.7001 383.71C87.2201 385.57 86.7401 387.39 86.7401 389.17C86.7401 390.95 87.1801 392.65 87.6501 394.25C88.1301 395.85 88.6401 397.39 88.9301 398.92C89.2401 400.45 89.2301 401.94 89.1401 403.33C89.0501 404.72 88.8801 406.02 88.7301 407.23C88.4201 409.65 88.2101 411.75 88.3901 413.46C88.5601 415.16 89.0701 416.42 89.5501 417.18C90.0301 417.94 90.3601 418.29 90.3401 418.31C90.3401 418.31 89.9901 417.98 89.4801 417.23C88.9601 416.48 88.4201 415.2 88.2201 413.48C88.0101 411.75 88.2001 409.63 88.4801 407.2C88.6201 405.99 88.7801 404.69 88.8601 403.31C88.9301 401.93 88.9301 400.47 88.6201 398.98C88.3301 397.48 87.8101 395.96 87.3201 394.35C86.8401 392.74 86.3701 391.02 86.3701 389.17C86.3701 387.32 86.8401 385.47 87.3201 383.61C87.7901 381.75 88.2801 379.81 88.1501 377.81C88.0301 375.81 87.3101 373.84 86.7101 371.79C86.4201 370.76 86.1301 369.7 86.0201 368.6C85.8801 367.5 85.9001 366.39 85.9801 365.27C86.1701 363.04 86.7001 360.83 87.1801 358.6C87.6601 356.37 88.1001 354.09 88.0201 351.77C87.9501 350.62 87.8001 349.48 87.4401 348.39C87.0901 347.3 86.6301 346.25 86.1901 345.19C85.7501 344.13 85.3201 343.07 85.0701 341.94C84.8001 340.82 84.7601 339.64 85.0201 338.52C85.2801 337.4 85.7801 336.41 86.1501 335.4C86.4701 334.39 86.7201 333.35 86.7501 332.31C86.8601 330.22 86.3901 328.17 85.7701 326.26C84.5001 322.42 82.7001 318.95 81.8401 315.39C81.3801 313.62 81.2501 311.83 81.4401 310.14C81.5901 308.43 82.2401 306.89 82.9301 305.51C83.6201 304.13 84.3701 302.87 84.9901 301.63C85.6101 300.4 86.0801 299.18 86.3401 298C86.8801 295.63 86.7801 293.5 86.6401 291.8C86.4901 290.09 86.2701 288.77 86.1301 287.87C86.0601 287.44 86.0101 287.1 85.9701 286.85C85.9401 286.62 85.9201 286.5 85.9301 286.5L85.9201 286.51Z" fill="#263238"/>
<path d="M78.4801 419.48C76.3901 420.51 74.2001 417.97 73.9101 415.67C73.6201 413.36 74.1801 410.85 73.0701 408.81C72.1101 407.04 70.1001 406.06 69.0101 404.36C67.0501 401.29 68.6801 397 67.0401 393.74C65.7601 391.21 62.7301 389.8 61.7901 387.13C60.7801 384.26 62.5601 381.01 61.7501 378.08C60.8901 374.95 57.3601 373.1 56.5701 369.96C55.7801 366.83 57.8801 363.04 55.8801 360.51C55.2201 359.67 54.2101 359.18 53.4601 358.41C51.7301 356.65 51.6601 353.85 52.1101 351.43C52.5601 349 53.4301 346.59 53.1701 344.14C52.7801 340.37 49.8101 337.17 49.7201 333.38C49.6501 330.22 51.5901 326.99 50.4301 324.06C53.2501 325.72 53.5701 329.64 55.4801 332.29C56.7201 334.02 58.6101 335.16 60.1801 336.59C63.3901 339.53 65.2701 343.86 65.2201 348.2C65.1901 351.07 64.4201 354.2 65.9201 356.65C67.7301 359.62 71.9901 360.13 74.1901 362.83C77.3401 366.68 74.9201 373.07 77.9401 377.02C78.7201 378.04 79.8101 378.8 80.5301 379.87C82.9701 383.49 80.1501 388.58 81.5801 392.7C82.6401 395.74 85.8301 397.71 86.6801 400.8C87.3401 403.19 86.5701 406.08 88.2001 407.95C88.9001 408.76 89.9401 409.2 90.7801 409.86C92.4001 411.12 93.2701 413.32 92.8201 415.33C92.3701 417.33 90.5301 418.98 88.4801 419.06" fill="#316CF5"/>
<g opacity="0.5">
<path d="M90.7701 409.86C89.9201 409.2 88.8901 408.76 88.1901 407.95C86.5701 406.08 87.3301 403.18 86.6701 400.8C85.8101 397.7 82.6201 395.73 81.5701 392.7C80.1301 388.58 82.9501 383.49 80.5201 379.87C79.8001 378.81 78.7101 378.04 77.9301 377.02C74.9101 373.07 77.3201 366.68 74.1801 362.83C71.9801 360.14 67.7201 359.63 65.9101 356.65C64.4201 354.2 65.1901 351.07 65.2201 348.2C65.2601 343.85 63.3801 339.52 60.1801 336.59C58.6101 335.15 56.7201 334.02 55.4801 332.29C53.5701 329.64 53.2501 325.71 50.4301 324.06C51.5901 326.99 49.6501 330.23 49.7201 333.38C49.8101 337.17 52.7801 340.37 53.1701 344.14C53.4201 346.59 52.5601 349.01 52.1101 351.43C51.6601 353.86 51.7301 356.65 53.4601 358.41C54.2101 359.17 55.2101 359.67 55.8801 360.51C57.8901 363.04 55.7901 366.83 56.5701 369.96C57.3601 373.1 60.8901 374.95 61.7501 378.08C62.5601 381.02 60.7801 384.26 61.7901 387.13C62.7301 389.81 65.7701 391.21 67.0401 393.74C68.6801 396.99 67.0401 401.29 69.0101 404.36C70.1001 406.06 72.1101 407.04 73.0701 408.81C74.1801 410.85 73.6201 413.36 73.9101 415.67C74.2001 417.98 76.3901 420.51 78.4801 419.48L88.4801 419.06C90.5301 418.98 92.3701 417.33 92.8201 415.33C93.2701 413.33 92.3901 411.13 90.7801 409.86H90.7701Z" fill="white"/>
</g>
<path d="M87.0902 409.47C86.2702 409 84.9502 407.81 84.6402 406.9C84.2002 405.62 85.6002 403.51 84.9902 401.26C84.2002 398.35 80.5402 394.46 79.6002 391.61C78.3102 387.74 80.6602 383.41 78.5702 380.02C77.9602 379.02 76.5802 376.21 75.9202 375.25C73.3502 371.54 75.3302 367 72.6702 363.38C70.8102 360.86 66.2102 359.24 64.6602 356.45C63.3802 354.15 63.9002 351.21 63.8402 348.51C63.7402 344.42 62.0902 340.36 59.4002 337.61C58.0802 336.26 56.5202 335.2 55.4602 333.58C53.8402 331.09 53.4502 327.41 51.1202 325.86C52.1502 328.62 50.6802 331.66 50.8302 334.62C51.0202 338.18 53.5202 341.18 53.9502 344.73C54.2302 347.04 53.6002 349.3 53.3102 351.59C53.0202 353.87 53.1602 356.5 54.6202 358.15C55.2502 358.86 56.0802 359.33 56.6402 360.11C58.3402 362.48 56.7602 366.05 57.4902 368.99C58.2302 371.94 61.1402 373.67 61.9302 376.61C62.6802 379.37 62.1302 383.98 63.0402 386.67C63.8802 389.18 66.7702 389.52 67.8802 391.9C69.3002 394.95 68.3402 400.14 70.0202 403.02C70.9502 404.62 72.5902 404.38 73.4202 406.05C74.3802 407.97 74.8802 412.56 75.1902 414.73C75.5002 416.9 76.3102 418.25 78.4702 419.48L89.6002 418.96C92.4602 414.94 90.1802 411.25 87.0802 409.48L87.0902 409.47Z" fill="#316CF5"/>
<path d="M56.32 340.34C56.32 340.34 56.37 340.4 56.44 340.52C56.53 340.67 56.63 340.85 56.76 341.08C57.03 341.58 57.45 342.32 57.89 343.31C58.32 344.3 58.82 345.56 58.98 347.12C59.18 348.69 58.73 350.44 58.44 352.33C58.31 353.28 58.22 354.29 58.46 355.29C58.67 356.3 59.08 357.31 59.7 358.25C60.89 360.16 62.64 361.88 64.17 363.96C64.93 365 65.63 366.16 65.99 367.5C66.18 368.16 66.24 368.87 66.24 369.57C66.22 370.27 66.12 370.95 66.17 371.61C66.27 372.95 67.16 374.1 68.08 375.17C68.55 375.71 69.03 376.26 69.47 376.87C69.91 377.47 70.24 378.16 70.52 378.87C71.04 380.3 71.22 381.78 71.36 383.21C71.5 384.64 71.61 386.05 71.92 387.39C72.22 388.73 72.78 389.95 73.55 391.04C74.29 392.14 75.12 393.2 75.6 394.44C76.08 395.68 76.16 396.97 76.23 398.17C76.3 399.38 76.37 400.55 76.7 401.61C77.4 403.74 78.97 405.28 79.88 407.02C80.82 408.77 81.06 410.56 81.36 412.05C81.64 413.56 81.91 414.85 82.35 415.84C82.78 416.82 83.31 417.48 83.75 417.84C84.18 418.2 84.44 418.36 84.43 418.38C84.43 418.38 84.15 418.26 83.69 417.91C83.23 417.56 82.65 416.9 82.19 415.91C81.72 414.92 81.42 413.61 81.12 412.1C80.8 410.61 80.53 408.84 79.61 407.17C78.71 405.49 77.11 403.97 76.35 401.72C75.6 399.48 76.12 396.92 75.21 394.59C74.75 393.43 73.95 392.39 73.19 391.28C72.41 390.18 71.79 388.88 71.48 387.49C70.83 384.74 71.07 381.77 70.09 379.03C69.83 378.36 69.52 377.71 69.1 377.14C68.69 376.56 68.21 376.02 67.74 375.47C66.82 374.4 65.84 373.17 65.73 371.66C65.67 370.93 65.78 370.23 65.8 369.57C65.8 368.91 65.75 368.25 65.57 367.63C65.24 366.37 64.56 365.25 63.83 364.22C62.34 362.17 60.59 360.44 59.38 358.47C58.76 357.5 58.33 356.44 58.12 355.38C57.88 354.32 57.98 353.26 58.12 352.3C58.44 350.38 58.9 348.68 58.72 347.16C58.59 345.64 58.12 344.39 57.72 343.4C57.31 342.4 56.92 341.66 56.67 341.14C56.56 340.9 56.46 340.71 56.39 340.56C56.33 340.43 56.3 340.36 56.31 340.35L56.32 340.34Z" fill="#263238"/>
<path d="M123.96 398.92H57.2402V410.75H123.96V398.92Z" fill="#455A64"/>
<path d="M62.2302 408.4L70.3402 443.74H110.11L118.98 408.4H62.2302Z" fill="#455A64"/>
<path d="M123.93 410.76C123.93 410.89 108.88 410.99 90.3202 410.99C71.7602 410.99 56.7002 410.88 56.7002 410.76C56.7002 410.64 71.7502 410.53 90.3202 410.53C108.89 410.53 123.93 410.64 123.93 410.76Z" fill="#263238"/>
<path d="M426.38 340.55C426.38 340.55 403.81 350.85 381.85 350.85C361.51 350.85 338.77 340.61 338.77 340.61L426.39 340.54L426.38 340.55Z" fill="#E0E0E0"/>
<path d="M379.55 432.75H388.26V341.53H379.55V432.75Z" fill="#E0E0E0"/>
<path d="M344.85 434.33H422.15V428.98H344.85V434.33Z" fill="#E0E0E0"/>
<path d="M413.09 436.63C413.09 439.89 415.73 442.53 418.99 442.53C422.25 442.53 424.89 439.89 424.89 436.63C424.89 433.37 422.25 430.73 418.99 430.73C415.73 430.73 413.09 433.37 413.09 436.63Z" fill="#263238"/>
<path d="M378.74 436.63C378.74 439.89 381.38 442.53 384.64 442.53C387.9 442.53 390.54 439.89 390.54 436.63C390.54 433.37 387.9 430.73 384.64 430.73C381.38 430.73 378.74 433.37 378.74 436.63Z" fill="#263238"/>
<path d="M338.96 436.63C338.96 439.89 341.6 442.53 344.86 442.53C348.12 442.53 350.76 439.89 350.76 436.63C350.76 433.37 348.12 430.73 344.86 430.73C341.6 430.73 338.96 433.37 338.96 436.63Z" fill="#263238"/>
<path d="M381.84 379.27H393.69V374.37H381.84V379.27Z" fill="#E0E0E0"/>
<path d="M391.54 382.7H395.85V370.93H391.54V382.7Z" fill="#E0E0E0"/>
<path d="M334.87 340.55H433.52C437.14 340.55 440.07 337.62 440.07 334C440.07 330.38 437.14 327.45 433.52 327.45H334.87C331.25 327.45 328.32 330.38 328.32 334C328.32 337.62 331.25 340.55 334.87 340.55Z" fill="#455A64"/>
<path d="M425.75 168.15C425.75 168.15 433.69 165.05 433.36 158.28C433.04 151.51 423.91 144.81 424.45 134.65C424.96 125.12 411.3 96.7901 391.79 106.66C391.79 106.66 386.56 105.89 381.99 107.2C375.7 109 373.74 115.02 370.02 120.99C364.28 130.19 360.38 137.43 363.15 143.84C365.92 150.25 367.08 152.13 364.93 157.6C362.12 164.74 359.26 162.67 360.2 168.9L377.22 169.18L378.83 165.02L379.01 169.52L389.01 169.38L425.75 168.14V168.15Z" fill="#263238"/>
<path d="M377.22 116.67C377.43 119.3 375.7 121.65 373.97 123.63C372.23 125.61 370.3 127.67 369.93 130.28C369.28 134.9 373.83 139.17 372.92 143.75C372.43 146.2 370.44 148.18 370.09 150.66C369.76 153.06 371.05 155.39 372.65 157.21C374.25 159.03 376.2 160.54 377.61 162.5C377.61 162.5 380.56 167.29 389.57 164.17" fill="#263238"/>
<path d="M384.95 113.32L407.38 118.07C409.55 118.21 411.25 120 411.29 122.17L411.02 170.72C411 174.04 409.89 177.25 407.86 179.88L405.72 182.64C400.84 188.93 390.96 188.3 387.23 181.26C386.97 180.77 386.79 180.34 386.71 179.99C386.63 179.55 386.52 179.27 386.5 178.89L386.07 174.16C385.85 169.84 385.82 165.44 385.82 165.48C385.82 165.48 376.64 164.32 374.29 152.49C373.12 146.61 373.04 136.89 373.23 128.94C373.4 121.78 377.79 112.84 384.94 113.31L384.95 113.32Z" fill="#FFBE9D"/>
<path d="M376.66 138.06C376.66 138.87 377.35 139.53 378.19 139.54C379.03 139.55 379.71 138.91 379.71 138.1C379.71 137.29 379.02 136.63 378.18 136.62C377.34 136.61 376.66 137.25 376.66 138.06Z" fill="#263238"/>
<path d="M375.55 133.92C375.75 134.11 376.87 133.21 378.51 133.15C380.15 133.07 381.39 133.87 381.56 133.66C381.64 133.57 381.44 133.22 380.9 132.85C380.37 132.49 379.47 132.15 378.45 132.2C377.43 132.25 376.58 132.66 376.1 133.06C375.61 133.47 375.45 133.83 375.55 133.92Z" fill="#263238"/>
<path d="M391.38 137.69C391.38 138.5 392.07 139.16 392.91 139.17C393.75 139.18 394.43 138.54 394.43 137.73C394.43 136.92 393.74 136.26 392.9 136.25C392.06 136.24 391.38 136.88 391.38 137.69Z" fill="#263238"/>
<path d="M391.15 133.52C391.35 133.71 392.47 132.81 394.11 132.75C395.75 132.67 396.99 133.47 397.16 133.26C397.24 133.17 397.04 132.82 396.5 132.45C395.97 132.09 395.07 131.75 394.05 131.8C393.03 131.85 392.18 132.26 391.7 132.66C391.21 133.07 391.05 133.43 391.15 133.52Z" fill="#263238"/>
<path d="M386.22 146.01C386.22 145.92 385.2 145.78 383.53 145.63C383.11 145.6 382.71 145.54 382.63 145.25C382.52 144.95 382.68 144.49 382.86 144C383.21 142.97 383.59 141.89 383.98 140.76C385.53 136.15 386.63 132.36 386.44 132.3C386.25 132.24 384.85 135.93 383.3 140.54C382.93 141.68 382.57 142.76 382.24 143.8C382.1 144.28 381.85 144.83 382.09 145.45C382.22 145.76 382.53 145.97 382.8 146.04C383.07 146.11 383.31 146.11 383.52 146.11C385.19 146.14 386.22 146.11 386.22 146.01Z" fill="#263238"/>
<path d="M385.84 165.49C385.84 165.49 393.87 165.7 401.62 160.62C401.62 160.62 397.93 169.02 385.98 168.36L385.85 165.49H385.84Z" fill="#EB996E"/>
<path d="M387.07 149.94C387.63 149.14 388.65 148.67 389.68 148.74C390.4 148.79 391.13 149.1 391.58 149.67C392.04 150.23 392.16 151.05 391.79 151.62C391.37 152.26 390.45 152.44 389.66 152.25C388.87 152.06 388.17 151.57 387.51 151.08C387.33 150.94 387.14 150.8 387.02 150.61C386.9 150.42 386.87 150.17 387 150" fill="#EB996E"/>
<path d="M391.1 146.96C390.83 146.96 390.9 148.74 389.42 150.06C387.95 151.39 386.04 151.26 386.03 151.51C386.01 151.62 386.47 151.84 387.27 151.83C388.06 151.83 389.2 151.53 390.1 150.72C391 149.91 391.36 148.86 391.39 148.12C391.43 147.37 391.21 146.94 391.09 146.95L391.1 146.96Z" fill="#263238"/>
<path d="M391.24 128.64C391.42 129.08 393.05 128.8 394.99 128.96C396.93 129.08 398.51 129.58 398.75 129.17C398.86 128.97 398.57 128.56 397.92 128.16C397.28 127.75 396.27 127.38 395.11 127.3C393.95 127.22 392.9 127.44 392.21 127.76C391.51 128.07 391.17 128.44 391.25 128.65L391.24 128.64Z" fill="#263238"/>
<path d="M375.75 126.71C376.05 127.07 377.17 126.64 378.53 126.57C379.89 126.45 381.05 126.72 381.3 126.32C381.41 126.13 381.21 125.76 380.7 125.43C380.19 125.1 379.35 124.84 378.42 124.91C377.49 124.98 376.69 125.35 376.23 125.75C375.76 126.15 375.62 126.54 375.76 126.72L375.75 126.71Z" fill="#263238"/>
<path d="M417.31 118.06C415.65 113.17 408.95 107.81 402.64 105.4C399.05 104.02 395 104.55 391.79 106.68L383.78 111.98C384.55 115.88 387.65 119.23 391.47 120.32C393.51 120.9 395.97 121.02 397.21 122.74C398.48 124.5 397.81 127.11 399 128.93C400.64 131.45 404.99 131.24 406.24 133.98C406.79 135.18 406.54 136.62 407.11 137.81C407.87 139.39 411.94 141.33 413.6 140.77C415.26 140.21 415.21 137.37 415.72 135.87C416.6 133.31 416.19 132 415.86 130.58C415.07 127.23 418.42 121.34 417.31 118.08V118.06Z" fill="#263238"/>
<path d="M408.7 142.25C408.67 141.36 409.61 139.23 410.48 139.06C412.8 138.6 417.02 138.63 417.29 144.56C417.66 152.67 409.44 151.37 409.41 151.14C409.39 150.96 408.8 145.31 408.69 142.24L408.7 142.25Z" fill="#FFBE9D"/>
<path d="M411.76 147.96C411.76 147.96 411.91 148.05 412.15 148.15C412.39 148.25 412.79 148.3 413.21 148.12C414.05 147.77 414.71 146.37 414.69 144.91C414.68 144.17 414.49 143.47 414.2 142.9C413.93 142.32 413.52 141.92 413.09 141.86C412.66 141.78 412.36 142.05 412.27 142.28C412.17 142.51 412.23 142.67 412.19 142.69C412.17 142.71 412.01 142.56 412.06 142.22C412.09 142.06 412.17 141.86 412.36 141.7C412.55 141.53 412.83 141.44 413.13 141.46C413.76 141.48 414.35 142.03 414.66 142.65C415.01 143.28 415.24 144.06 415.25 144.89C415.27 146.53 414.5 148.09 413.35 148.49C412.79 148.66 412.3 148.51 412.05 148.33C411.79 148.14 411.74 147.96 411.77 147.95L411.76 147.96Z" fill="#EB996E"/>
<path d="M356.18 203.48L341.83 240.91L314.83 242.63L310.65 254.37L346.29 261.28C346.29 261.28 357.01 264.4 363.12 250.79L373.57 213.56L356.17 203.49L356.18 203.48Z" fill="#FFBE9D"/>
<path d="M289.2 248.47C289.52 249.11 290.2 249.53 290.92 249.47C291.06 249.46 291.21 249.43 291.37 249.38C292.39 249.05 292.3 246.97 292.3 246.97L297.19 246.17C297.19 246.17 303.55 250.27 305.82 252.99C308.09 255.71 313.86 253.51 313.86 253.51L315.86 243.08L306.85 234.94C306.85 234.94 307.4 235.43 306.78 233.9C306.16 232.38 303.33 232.95 303.33 232.95C302.89 232.2 301.04 231.93 301.04 231.93L293.14 232.84C291.51 233.03 290.06 233.94 289.18 235.33L285.84 240.62C285.84 240.62 284.08 244.43 284.36 245.31C284.79 246.65 286.2 246.35 286.2 246.35C286.2 246.35 286.59 248.85 287.25 248.94C287.91 249.03 289.21 248.47 289.21 248.47H289.2Z" fill="#FFBE9D"/>
<path d="M304.08 251.32C304.08 251.32 303.91 251.21 303.61 250.96C303.27 250.69 302.83 250.34 302.29 249.9C301.12 249 299.39 247.71 297.1 246.32L297.21 246.34C295.75 246.59 294.11 246.87 292.32 247.17L292.49 246.96C292.5 247.36 292.48 247.75 292.4 248.16C292.32 248.56 292.19 248.99 291.85 249.34C291.67 249.51 291.41 249.61 291.2 249.64C290.98 249.7 290.75 249.72 290.51 249.68C290.04 249.61 289.6 249.37 289.29 249.01C289.21 248.92 289.14 248.82 289.08 248.72L289.04 248.64L289.02 248.6V248.58H289.01C288.95 248.56 289.56 248.78 289.3 248.68H289.29L289.14 248.74C288.93 248.82 288.72 248.9 288.51 248.96C288.29 249.03 288.07 249.09 287.84 249.13C287.72 249.15 287.6 249.17 287.48 249.17C287.36 249.17 287.22 249.17 287.03 249.08C286.75 248.88 286.66 248.65 286.55 248.43C286.45 248.21 286.37 247.98 286.31 247.76C286.17 247.31 286.08 246.85 286 246.38L286.29 246.58C285.66 246.69 284.91 246.54 284.47 245.96C284.27 245.69 284.11 245.36 284.13 244.98C284.15 244.64 284.22 244.34 284.3 244.03C284.64 242.83 285.13 241.68 285.65 240.51V240.48C286.22 239.58 286.82 238.63 287.43 237.66C287.81 237.06 288.19 236.46 288.56 235.87C288.94 235.3 289.27 234.65 289.8 234.14C290.31 233.63 290.92 233.23 291.57 232.96C292.22 232.68 292.95 232.61 293.58 232.54C296.2 232.25 298.69 231.97 301.03 231.7H301.06H301.09C301.55 231.78 301.98 231.88 302.4 232.04C302.81 232.21 303.24 232.39 303.53 232.83L303.26 232.74C304.1 232.4 305.06 232.39 305.8 232.88C306.54 233.36 306.87 234.15 307.05 234.88L306.99 234.78C309.58 237.11 311.69 239 313.2 240.36C313.9 241 314.45 241.51 314.87 241.9C315.25 242.26 315.44 242.45 315.43 242.46C315.42 242.47 315.2 242.31 314.8 241.98C314.36 241.61 313.79 241.12 313.06 240.51C311.52 239.18 309.38 237.33 306.74 235.05L306.7 235.01L306.68 234.94C306.51 234.29 306.18 233.58 305.57 233.2C304.98 232.8 304.13 232.81 303.43 233.11L303.26 233.18L303.16 233.02C302.99 232.76 302.62 232.56 302.24 232.42C301.86 232.28 301.44 232.18 301.02 232.11H301.08C298.75 232.39 296.25 232.68 293.64 232.99C292.97 233.06 292.35 233.12 291.75 233.38C291.16 233.62 290.61 233.98 290.15 234.45C289.68 234.9 289.37 235.5 288.98 236.1C288.61 236.69 288.23 237.29 287.85 237.89C287.24 238.86 286.64 239.81 286.07 240.71L286.09 240.68C285.58 241.82 285.09 242.98 284.76 244.12C284.68 244.4 284.61 244.69 284.6 244.95C284.57 245.17 284.69 245.42 284.83 245.62C285.11 246.02 285.69 246.15 286.17 246.07L286.42 246.03L286.46 246.27C286.53 246.72 286.63 247.17 286.75 247.59C286.87 247.99 287.04 248.48 287.26 248.65C287.27 248.65 287.35 248.68 287.46 248.67C287.56 248.67 287.66 248.66 287.76 248.64C287.96 248.61 288.17 248.55 288.37 248.49C288.57 248.43 288.77 248.36 288.97 248.28L289.12 248.22C288.86 248.13 289.47 248.35 289.41 248.33V248.35L289.43 248.38L289.46 248.44C289.51 248.52 289.56 248.6 289.63 248.67C289.87 248.96 290.22 249.15 290.57 249.2C290.75 249.23 290.93 249.21 291.11 249.17C291.31 249.14 291.44 249.09 291.56 248.98C292.03 248.49 292.09 247.63 292.1 246.94V246.76L292.27 246.73C294.06 246.45 295.71 246.19 297.17 245.96H297.23L297.28 245.98C299.57 247.42 301.28 248.75 302.41 249.7C302.98 250.18 303.4 250.56 303.68 250.83C303.96 251.1 304.1 251.25 304.09 251.26L304.08 251.32Z" fill="#EB996E"/>
<path d="M301.98 235.74C302 235.79 301.06 236.16 299.45 236.5C297.84 236.84 295.53 237.12 292.93 236.97L293.19 236.79C293.06 237.18 292.91 237.59 292.75 238C291.67 240.71 290.06 242.85 288.74 244.21C288.08 244.89 287.49 245.39 287.08 245.72C286.66 246.04 286.41 246.2 286.39 246.17C286.34 246.1 287.24 245.37 288.48 243.97C289.71 242.57 291.22 240.45 292.28 237.81C292.44 237.41 292.58 237.01 292.71 236.64L292.78 236.45H292.97C295.52 236.62 297.79 236.41 299.39 236.16C301 235.91 301.97 235.67 301.99 235.74H301.98Z" fill="#EB996E"/>
<path d="M294.48 240.35C294.61 240.37 294.09 242.55 292.53 244.78C290.98 247.02 289.12 248.26 289.05 248.15C288.95 248.03 290.61 246.65 292.1 244.49C293.61 242.34 294.33 240.3 294.48 240.36V240.35Z" fill="#EB996E"/>
<path d="M315.4 250.34C315.4 250.34 315.32 250.4 315.15 250.49C314.98 250.57 314.72 250.68 314.37 250.79C313.68 251.01 312.61 251.24 311.26 251.15C309.92 251.06 308.28 250.63 306.78 249.53C305.29 248.45 303.96 246.72 303.4 244.56L303.69 244.75C301.93 245.09 299.97 245.21 297.97 245.02C297.25 244.95 296.55 244.84 295.86 244.7C295.18 244.56 294.48 244.42 293.85 244.04C293.55 243.87 293.21 243.58 293.09 243.18C292.96 242.79 293.03 242.37 293.22 242.04C293.41 241.7 293.74 241.45 294.11 241.35C294.42 241.27 294.72 241.2 295.02 241.12C297.42 240.54 299.61 240.12 301.45 239.83C303.29 239.54 304.79 239.37 305.83 239.28C306.87 239.19 307.45 239.17 307.45 239.2C307.45 239.24 306.88 239.32 305.85 239.48C304.82 239.63 303.33 239.86 301.5 240.19C299.67 240.52 297.51 240.98 295.12 241.58C294.82 241.66 294.52 241.73 294.22 241.81C293.98 241.88 293.77 242.04 293.64 242.27C293.52 242.5 293.48 242.77 293.56 243.01C293.63 243.25 293.83 243.43 294.1 243.59C294.63 243.9 295.28 244.04 295.95 244.18C296.62 244.32 297.31 244.42 298 244.49C299.95 244.68 301.85 244.56 303.57 244.25L303.8 244.21L303.86 244.44C304.37 246.48 305.61 248.13 307.01 249.19C308.42 250.26 309.97 250.71 311.26 250.84C312.56 250.97 313.6 250.79 314.3 250.63C315 250.46 315.36 250.31 315.38 250.35L315.4 250.34Z" fill="#EB996E"/>
<path d="M306.13 384.21C306.13 384.21 306.07 383.89 306.16 383.32C306.25 382.75 306.49 381.92 307.06 381.05C307.21 380.84 307.36 380.6 307.6 380.39C307.83 380.18 308.23 380.02 308.61 380.16C308.8 380.22 308.99 380.4 309.06 380.61C309.13 380.83 309.1 381.04 309.04 381.22C308.91 381.58 308.73 381.84 308.57 382.13C308.22 382.72 307.93 383.31 307.48 383.97C307.25 384.31 306.74 384.59 306.28 384.51C305.82 384.45 305.45 384.23 305.12 384C304.47 383.53 303.91 383 303.42 382.43C303.18 382.15 302.95 381.85 302.75 381.56C302.56 381.27 302.33 380.97 302.25 380.56C302.16 380.16 302.31 379.64 302.76 379.47C303.22 379.31 303.59 379.53 303.84 379.71C304.35 380.14 304.66 380.58 304.98 381C305.58 381.85 305.91 382.62 306.1 383.16C306.28 383.71 306.33 384.02 306.29 384.03C306.2 384.07 305.89 382.81 304.68 381.22C304.38 380.84 304 380.38 303.59 380.06C303.38 379.91 303.11 379.81 302.95 379.89C302.78 379.95 302.68 380.21 302.74 380.45C302.79 380.7 302.98 380.98 303.18 381.26C303.38 381.54 303.59 381.81 303.83 382.08C304.3 382.61 304.84 383.12 305.45 383.56C305.74 383.77 306.06 383.94 306.36 383.98C306.66 384.02 306.89 383.9 307.09 383.64C307.46 383.1 307.82 382.43 308.16 381.87C308.33 381.58 308.52 381.3 308.61 381.06C308.7 380.8 308.65 380.64 308.47 380.57C308.06 380.4 307.66 380.86 307.39 381.26C306.24 382.89 306.25 384.25 306.15 384.21H306.13Z" fill="#263238"/>
<path d="M329.31 385L340.81 409.94L359.38 401.36L347.48 370.5L329.31 385Z" fill="#FFBE9D"/>
<path d="M338.64 408.28L345.36 421.1C345.36 421.1 328.15 438.9 329.77 442.87L370.23 423.47L359.11 397.75L338.64 408.27V408.28Z" fill="#455A64"/>
<path d="M357.03 413.35C357.92 413.19 358.88 413.81 359.08 414.69C359.28 415.57 358.65 416.55 357.77 416.73C356.89 416.91 355.71 416.2 355.61 415.3C355.51 414.41 356.31 413.29 357.21 413.33" fill="#E0E0E0"/>
<g opacity="0.6">
<path d="M370.23 423.48L368.55 420.26L330.39 440.07C330.39 440.07 328.96 441.72 329.78 442.89L370.24 423.49L370.23 423.48Z" fill="white"/>
</g>
<path d="M344.61 421.21C344.71 421.4 345.74 421.02 347.02 421.19C348.3 421.33 349.21 421.94 349.36 421.78C349.52 421.65 348.66 420.61 347.11 420.44C345.56 420.25 344.48 421.06 344.61 421.22V421.21Z" fill="#263238"/>
<path d="M341.21 425C341.26 425.21 342.27 425.14 343.35 425.65C344.44 426.13 345.04 426.95 345.23 426.85C345.43 426.79 345.01 425.57 343.67 424.96C342.33 424.33 341.13 424.81 341.22 425H341.21Z" fill="#263238"/>
<path d="M341.23 431.23C341.43 431.19 341.23 430.07 340.21 429.23C339.19 428.38 338.05 428.4 338.05 428.61C338.02 428.83 338.89 429.12 339.73 429.82C340.58 430.5 341.03 431.31 341.24 431.23H341.23Z" fill="#263238"/>
<path d="M342.68 416.27C342.85 416.41 343.62 415.7 344.78 415.24C345.92 414.76 346.97 414.72 346.99 414.5C347.04 414.3 345.84 413.98 344.49 414.54C343.14 415.09 342.51 416.16 342.68 416.27Z" fill="#263238"/>
<path d="M334.85 404.95L304.52 329.03C304.52 329.03 305.2 316.08 307.59 311.99C309.98 307.9 382.24 284.04 382.24 284.04C382.24 284.04 400.65 279.61 412.92 284.04C425.19 288.47 438.05 292.93 436.67 301.51C434.66 314.05 423.8 327.11 423.8 327.11L370.66 328.69L341.7 339.26L361.21 395.16L334.88 404.95H334.85Z" fill="#263238"/>
<path d="M307.87 353.07L307.18 380.53L327.63 381.03L330.58 348.08L307.87 353.07Z" fill="#FFBE9D"/>
<path d="M305.97 378.08L306.34 392.55C306.34 392.55 283.04 400.92 282.74 405.2L327.61 405.65L328.99 377.67L305.97 378.07V378.08Z" fill="#455A64"/>
<path d="M320.23 390.75C321.1 391 321.69 391.98 321.48 392.85C321.27 393.73 320.28 394.33 319.41 394.1C318.54 393.87 317.8 392.71 318.1 391.87C318.41 391.02 319.61 390.37 320.4 390.81" fill="#E0E0E0"/>
<g opacity="0.6">
<path d="M327.6 405.66L327.51 402.02L284.52 402.94C284.52 402.94 282.51 403.79 282.73 405.2L327.6 405.65V405.66Z" fill="white"/>
</g>
<path d="M305.62 392.32C305.62 392.54 306.72 392.65 307.79 393.37C308.88 394.06 309.43 395.01 309.63 394.93C309.83 394.89 309.52 393.58 308.21 392.73C306.91 391.88 305.58 392.12 305.62 392.32Z" fill="#263238"/>
<path d="M300.89 394.22C300.84 394.43 301.78 394.81 302.52 395.75C303.28 396.66 303.46 397.67 303.68 397.66C303.89 397.7 304.05 396.42 303.11 395.27C302.18 394.12 300.9 394.01 300.89 394.22Z" fill="#263238"/>
<path d="M298.16 399.82C298.36 399.87 298.67 398.78 298.12 397.57C297.58 396.36 296.55 395.88 296.46 396.06C296.33 396.24 296.99 396.89 297.43 397.89C297.89 398.88 297.94 399.8 298.16 399.82Z" fill="#263238"/>
<path d="M306.06 387.03C306.15 387.23 307.16 386.94 308.4 387.03C309.64 387.1 310.6 387.53 310.71 387.34C310.84 387.18 309.91 386.36 308.45 386.27C306.99 386.17 305.96 386.85 306.06 387.03Z" fill="#263238"/>
<path d="M319.81 276.84C319.81 276.84 307.56 275.86 306.19 289.15C304.83 302.44 303.49 364.48 303.49 364.48L332.12 366.87L336.55 303.47L382.23 284.04C382.23 284.04 327.99 275.13 319.81 276.84Z" fill="#263238"/>
<path d="M370.31 258.9C370.31 258.9 362.87 279.75 364.29 282.07C365.71 284.39 384.83 293.95 384.83 293.95L432.68 312.33C432.68 312.33 437.59 304.51 437.59 292.51C437.59 280.51 420.95 258.9 420.95 258.9H370.31Z" fill="#263238"/>
<path d="M384.49 282.98C384.49 282.98 384.42 283.03 384.27 283.1C384.1 283.18 383.87 283.28 383.59 283.41C382.96 283.69 382.07 284.08 380.94 284.59C378.59 285.61 375.22 287.08 370.99 288.92C362.46 292.59 350.49 297.74 336.65 303.7L336.8 303.48C336.37 309.74 335.9 316.51 335.41 323.5C334.25 339.86 333.17 354.94 332.32 366.87L332.3 367.09L332.09 367.07C323.38 366.31 316.24 365.68 311.23 365.24C308.77 365.01 306.84 364.83 305.49 364.7C304.85 364.63 304.36 364.58 303.99 364.54C303.65 364.5 303.48 364.48 303.48 364.47C303.48 364.46 303.66 364.47 304 364.48C304.37 364.5 304.87 364.53 305.51 364.57C306.86 364.67 308.8 364.81 311.26 364.99C316.27 365.39 323.42 365.95 332.13 366.64L331.9 366.84C332.72 354.91 333.75 339.82 334.88 323.46C335.37 316.46 335.85 309.7 336.29 303.44V303.28L336.45 303.22C350.32 297.33 362.31 292.24 370.86 288.61C375.11 286.83 378.5 285.41 380.86 284.41C382.01 283.94 382.9 283.57 383.54 283.31C383.83 283.2 384.06 283.11 384.24 283.04C384.4 282.98 384.48 282.95 384.48 282.96L384.49 282.98Z" fill="#455A64"/>
<path d="M422.55 285.06C422.55 285.06 422.06 284.96 421.21 284.69C420.26 284.38 419.05 283.99 417.61 283.53C414.57 282.57 410.35 281.22 405.55 280.48C400.75 279.74 396.31 279.97 393.21 280.64C390.09 281.28 388.3 282.17 388.26 282.07C388.25 282.04 388.68 281.8 389.5 281.44C390.32 281.08 391.55 280.64 393.12 280.27C396.24 279.49 400.76 279.2 405.62 279.95C410.48 280.7 414.7 282.11 417.72 283.17C419.23 283.71 420.44 284.16 421.27 284.49C422.1 284.82 422.56 285.02 422.54 285.05L422.55 285.06Z" fill="#455A64"/>
<path d="M415.78 274.07C415.77 274.15 414.18 273.85 411.6 274.05C410.31 274.14 408.78 274.34 407.07 274.54C405.37 274.74 403.49 274.97 401.56 275.34C397.67 276.03 394.33 277.39 392.18 278.82C390.02 280.23 389 281.51 388.93 281.44C388.91 281.42 389.13 281.08 389.62 280.54C390.12 280 390.88 279.26 391.96 278.51C394.09 276.97 397.51 275.52 401.45 274.82C403.41 274.45 405.3 274.23 407.01 274.06C408.72 273.89 410.26 273.73 411.57 273.69C412.88 273.64 413.94 273.72 414.67 273.83C415.4 273.94 415.78 274.06 415.78 274.09V274.07Z" fill="#455A64"/>
<path d="M352.59 199.62C352.59 199.62 361.15 185.35 363.52 182.46C365.75 179.75 368.62 178.16 370.53 177.32C371.6 176.85 372.72 176.53 373.86 176.33L386.17 173.6C386.17 173.6 386.19 182 394.99 182.52C403.79 183.04 411.2 170.78 411.2 170.78C411.2 170.78 425.42 172.98 428.82 174.73C432.22 176.48 437.57 178.7 440.51 193.44L442.58 207.85L418.06 210.12L415.71 246.56L403.55 255.03C403.55 255.03 369.84 263.79 367.68 264.37C365.53 264.95 364.81 210.12 364.81 210.12C364.81 210.12 356.15 204.52 352.57 199.61L352.59 199.62Z" fill="#316CF5"/>
<path d="M368.73 193.5C368.73 193.5 368.53 193.86 368.26 194.55C367.98 195.24 367.62 196.25 367.22 197.51C366.42 200.04 365.55 203.61 365.05 207.64C364.56 211.67 364.55 215.35 364.71 217.99C364.79 219.31 364.89 220.38 365 221.12C365.1 221.85 365.17 222.26 365.21 222.25C365.24 222.25 365.24 221.84 365.19 221.1C365.14 220.36 365.09 219.3 365.06 217.98C364.98 215.34 365.06 211.7 365.54 207.7C366.03 203.71 366.85 200.15 367.56 197.61C367.91 196.34 368.22 195.32 368.44 194.61C368.66 193.9 368.76 193.51 368.73 193.5Z" fill="#263238"/>
<path d="M418.97 192.63C418.97 192.63 419.01 193.03 418.99 193.74C418.96 194.57 418.92 195.58 418.87 196.76C418.74 199.43 418.58 202.9 418.4 206.72C418.22 210.61 418.01 214.14 417.82 216.68C417.72 217.95 417.63 218.98 417.56 219.69C417.48 220.4 417.43 220.79 417.39 220.79C417.35 220.79 417.34 220.39 417.36 219.68C417.39 218.85 417.42 217.84 417.46 216.66C417.57 213.98 417.72 210.52 417.89 206.69C418.07 202.8 418.3 199.27 418.51 196.73C418.62 195.46 418.71 194.43 418.8 193.72C418.88 193.01 418.94 192.62 418.98 192.62L418.97 192.63Z" fill="#263238"/>
<path d="M369.78 253.18L415.95 243.13L418.08 210.13L438.61 208.23C438.61 208.23 437.17 230.74 437.06 237.5C436.76 256.96 430.22 260.31 426.89 262.94C423.55 265.57 367.71 264.38 367.71 264.38L369.78 253.18Z" fill="#FFBE9D"/>
<path d="M343.57 259.16C343.89 259.8 344.57 260.22 345.29 260.16C345.43 260.15 345.58 260.12 345.74 260.07C346.76 259.74 346.67 257.66 346.67 257.66L351.56 256.86C351.56 256.86 357.92 260.96 360.19 263.68C362.45 266.4 368.23 264.2 368.23 264.2L370.23 253.77L361.22 245.63C361.22 245.63 361.77 246.12 361.15 244.59C360.53 243.07 357.7 243.64 357.7 243.64C357.26 242.89 355.41 242.62 355.41 242.62L347.51 243.53C345.88 243.72 344.43 244.63 343.55 246.02L340.21 251.31C340.21 251.31 338.45 255.12 338.73 256C339.16 257.34 340.57 257.04 340.57 257.04C340.57 257.04 340.96 259.54 341.62 259.63C342.28 259.72 343.58 259.16 343.58 259.16H343.57Z" fill="#FFBE9D"/>
<path d="M360.39 251.67C360.39 251.75 359.33 251.66 357.64 251.73C355.96 251.81 353.63 252.11 351.19 252.94C349.97 253.35 348.85 253.84 347.87 254.36C346.92 254.9 345.92 255.34 345.61 256.03C345.46 256.37 345.53 256.72 345.7 256.97C345.87 257.22 346.09 257.39 346.3 257.47C346.71 257.64 346.98 257.52 346.99 257.57C347.01 257.58 346.75 257.79 346.23 257.65C345.98 257.58 345.7 257.42 345.47 257.12C345.24 256.84 345.1 256.34 345.28 255.88C345.45 255.42 345.84 255.06 346.26 254.77C346.69 254.49 347.14 254.2 347.64 253.93C348.63 253.38 349.78 252.86 351.02 252.44C353.51 251.59 355.91 251.35 357.62 251.35C359.34 251.37 360.38 251.59 360.37 251.65L360.39 251.67Z" fill="#EB996E"/>
<path d="M360.94 256.71C360.94 256.86 357.72 256.73 353.77 256.96C349.82 257.18 346.64 257.67 346.61 257.53C346.6 257.46 347.38 257.26 348.67 257.03C349.96 256.8 351.75 256.57 353.74 256.46C355.73 256.35 357.54 256.37 358.84 256.46C360.14 256.54 360.94 256.66 360.94 256.72V256.71Z" fill="#EB996E"/>
<path d="M343.62 258.96C343.62 258.96 343.56 258.66 343.52 258.12C343.49 257.58 343.45 256.79 343.52 255.81C343.55 255.32 343.61 254.78 343.74 254.21C343.87 253.63 344.14 253.03 344.52 252.49C345.23 251.41 346.22 250.3 347.48 249.46C348.73 248.63 349.99 247.93 351.26 247.55C352.52 247.17 353.7 247.07 354.67 247.03C355.65 247 356.43 247.02 356.98 247.03C357.52 247.05 357.82 247.08 357.82 247.12C357.82 247.2 356.62 247.24 354.69 247.38C353.73 247.47 352.59 247.6 351.39 247.99C350.21 248.37 348.97 249.07 347.76 249.87C346.55 250.68 345.62 251.7 344.9 252.75C344.14 253.75 343.99 254.89 343.88 255.84C343.69 257.75 343.74 258.97 343.63 258.96H343.62Z" fill="#EB996E"/>
<path d="M355.03 244.63C355.03 244.71 353.85 244.74 351.96 244.95C350.14 245.23 347.23 245.36 345.58 247.87C343.79 250.15 342.26 252.3 341.59 254.07C340.88 255.82 340.95 257.04 340.84 257.03C340.81 257.03 340.77 256.73 340.79 256.19C340.81 255.65 340.93 254.86 341.25 253.95C341.86 252.09 343.37 249.85 345.18 247.56C345.64 246.98 346.14 246.44 346.72 246.01C347.3 245.57 347.96 245.32 348.58 245.14C349.83 244.79 350.97 244.69 351.93 244.61C353.85 244.48 355.03 244.58 355.03 244.64V244.63Z" fill="#EB996E"/>
<path d="M358.46 262.01C358.46 262.01 358.29 261.9 357.99 261.65C357.65 261.38 357.21 261.03 356.67 260.59C355.5 259.69 353.77 258.4 351.48 257.01L351.59 257.03C350.13 257.28 348.49 257.56 346.7 257.86L346.87 257.65C346.88 258.05 346.86 258.44 346.78 258.85C346.7 259.25 346.57 259.68 346.23 260.03C346.05 260.2 345.79 260.3 345.58 260.33C345.36 260.39 345.13 260.41 344.89 260.37C344.42 260.3 343.98 260.06 343.67 259.7C343.59 259.61 343.52 259.51 343.46 259.41L343.42 259.33L343.4 259.29V259.27H343.39C343.33 259.25 343.94 259.47 343.68 259.37H343.67L343.52 259.43C343.31 259.51 343.1 259.59 342.89 259.65C342.67 259.72 342.45 259.78 342.22 259.82C342.1 259.84 341.98 259.86 341.86 259.86C341.74 259.86 341.6 259.86 341.41 259.77C341.13 259.57 341.04 259.34 340.93 259.12C340.83 258.9 340.75 258.67 340.69 258.45C340.55 258 340.46 257.54 340.38 257.07L340.67 257.27C340.04 257.38 339.29 257.23 338.85 256.65C338.65 256.38 338.49 256.05 338.51 255.67C338.53 255.33 338.6 255.03 338.68 254.72C339.02 253.52 339.51 252.37 340.03 251.2V251.17C340.6 250.27 341.2 249.32 341.81 248.35C342.19 247.75 342.57 247.15 342.94 246.56C343.32 245.99 343.65 245.34 344.18 244.83C344.69 244.32 345.3 243.92 345.95 243.65C346.6 243.37 347.33 243.3 347.96 243.23C350.58 242.94 353.07 242.66 355.41 242.39H355.44H355.47C355.93 242.47 356.36 242.57 356.78 242.73C357.19 242.9 357.62 243.08 357.91 243.52L357.64 243.43C358.48 243.09 359.44 243.08 360.18 243.57C360.92 244.05 361.25 244.84 361.43 245.57L361.37 245.47C363.96 247.8 366.07 249.69 367.58 251.05C368.28 251.69 368.83 252.2 369.25 252.59C369.63 252.95 369.82 253.14 369.81 253.15C369.8 253.16 369.58 253 369.18 252.67C368.74 252.3 368.17 251.81 367.44 251.2C365.9 249.87 363.76 248.02 361.12 245.74L361.08 245.7L361.06 245.63C360.89 244.98 360.56 244.27 359.95 243.89C359.36 243.49 358.51 243.5 357.81 243.8L357.64 243.87L357.54 243.71C357.37 243.45 357 243.25 356.62 243.11C356.24 242.97 355.82 242.87 355.4 242.8H355.46C353.13 243.08 350.63 243.37 348.02 243.68C347.35 243.75 346.73 243.81 346.13 244.07C345.54 244.31 344.99 244.67 344.53 245.14C344.06 245.59 343.75 246.19 343.36 246.79C342.99 247.38 342.61 247.98 342.23 248.58C341.62 249.55 341.02 250.5 340.45 251.4L340.47 251.37C339.96 252.51 339.47 253.67 339.14 254.81C339.06 255.09 338.99 255.38 338.98 255.64C338.95 255.86 339.07 256.11 339.21 256.31C339.49 256.71 340.07 256.84 340.55 256.76L340.8 256.72L340.84 256.96C340.91 257.41 341.01 257.86 341.13 258.28C341.25 258.68 341.42 259.17 341.64 259.34C341.65 259.34 341.73 259.37 341.84 259.36C341.94 259.36 342.04 259.35 342.14 259.33C342.34 259.3 342.55 259.24 342.75 259.18C342.95 259.12 343.15 259.05 343.35 258.97L343.5 258.91C343.24 258.82 343.85 259.04 343.79 259.02V259.04L343.81 259.07L343.84 259.13C343.89 259.21 343.94 259.29 344.01 259.36C344.25 259.65 344.6 259.84 344.95 259.89C345.13 259.92 345.31 259.9 345.49 259.86C345.69 259.83 345.82 259.78 345.94 259.67C346.41 259.18 346.47 258.32 346.48 257.63V257.45L346.65 257.42C348.44 257.14 350.09 256.88 351.55 256.65H351.61L351.66 256.67C353.95 258.11 355.66 259.44 356.79 260.39C357.36 260.87 357.78 261.25 358.06 261.52C358.34 261.79 358.48 261.94 358.47 261.95L358.46 262.01Z" fill="#EB996E"/>
<path d="M402.19 276.23H394.43V277.95L411.43 443.78H420.5L402.19 276.23Z" fill="#455A64"/>
<path d="M402.19 276.23C402.19 276.23 402.21 276.53 402.27 277.11C402.33 277.69 402.42 278.54 402.53 279.64C402.76 281.87 403.11 285.14 403.55 289.35C404.45 297.79 405.76 309.98 407.38 325.1C410.65 355.31 415.19 397.16 420.24 443.8L420.5 443.51C417.86 443.51 415.01 443.51 412.16 443.51H411.44L411.7 443.75C403.7 365.7 396.85 299.66 394.52 277.94C394.52 277.15 394.52 276.68 394.52 276.23L394.45 276.3C397.09 276.28 399.02 276.27 400.31 276.26C400.94 276.26 401.41 276.25 401.74 276.24C402.06 276.24 402.22 276.23 402.22 276.23C402.22 276.23 402.08 276.23 401.77 276.22C401.45 276.22 400.98 276.22 400.36 276.2C399.07 276.2 397.12 276.18 394.46 276.16H394.39V276.23C394.39 276.68 394.39 277.15 394.39 277.95C396.51 299.69 403.21 365.74 411.21 443.79L411.23 444.03H412.19C415.05 444.03 417.89 444.03 420.53 444.03H420.82L420.79 443.74C415.65 397.04 411.03 355.13 407.7 324.88C406.02 309.8 404.66 297.62 403.72 289.2C403.25 285.02 402.88 281.77 402.63 279.55C402.5 278.46 402.41 277.63 402.34 277.05C402.27 276.49 402.23 276.21 402.23 276.21L402.19 276.23Z" fill="#263238"/>
<path d="M264.96 276.23H257.19V277.99L273.37 443.74H281.35L264.96 276.23Z" fill="#263238"/>
<path d="M434.64 277.95L157.79 278.25L157.69 270.94H434.64V277.95Z" fill="#455A64"/>
<path d="M196.73 276.23H204.5V277.99L188.32 443.74H180.34L196.73 276.23Z" fill="#455A64"/>
<path d="M196.38 278.4C196.38 278.4 196.36 278.7 196.31 279.26C196.26 279.83 196.18 280.66 196.08 281.75C195.87 283.95 195.57 287.17 195.18 291.32C194.38 299.63 193.23 311.66 191.8 326.56C188.91 356.33 184.9 397.59 180.44 443.54L180.22 443.3C182.71 443.3 185.39 443.3 188.08 443.3H188.2L187.98 443.5C195.54 366.76 201.95 301.75 204.07 280.16C204.07 279.35 204.07 278.87 204.07 278.41L204.13 278.47C201.48 278.45 199.55 278.44 198.27 278.44C197.64 278.44 197.16 278.43 196.84 278.43C196.52 278.43 196.36 278.42 196.36 278.42C196.36 278.42 196.51 278.42 196.82 278.41C197.14 278.41 197.61 278.41 198.24 278.4C199.53 278.4 201.47 278.38 204.14 278.37H204.2V278.43C204.2 278.89 204.2 279.37 204.2 280.19C202.11 301.79 195.83 366.81 188.4 443.56L188.38 443.76H188.06C185.37 443.76 182.69 443.76 180.2 443.76H179.96L179.98 443.52C184.51 397.52 188.59 356.22 191.52 326.41C193 311.54 194.2 299.53 195.03 291.23C195.45 287.1 195.77 283.9 195.99 281.71C196.1 280.63 196.19 279.81 196.25 279.25C196.31 278.7 196.35 278.42 196.35 278.42L196.38 278.4Z" fill="#263238"/>
<path d="M308.92 276.87H301.15V278.62L317.34 443.74H325.32L308.92 276.87Z" fill="#455A64"/>
<path d="M309.27 279.03C309.27 279.03 309.29 279.33 309.34 279.89C309.39 280.46 309.47 281.29 309.57 282.37C309.78 284.56 310.08 287.77 310.47 291.9C311.27 300.18 312.42 312.16 313.85 327C316.74 356.66 320.75 397.76 325.21 443.53L325.43 443.29C322.94 443.29 320.26 443.29 317.57 443.29H317.45L317.67 443.48C310.11 367.03 303.7 302.27 301.58 280.76C301.58 279.96 301.58 279.47 301.58 279.01L301.52 279.07C304.17 279.05 306.1 279.04 307.38 279.04C308.01 279.04 308.49 279.03 308.81 279.03C309.13 279.03 309.29 279.02 309.29 279.02C309.29 279.02 309.14 279.02 308.83 279.01C308.51 279.01 308.04 279.01 307.41 279C306.12 279 304.18 278.98 301.51 278.97H301.45V279.03C301.45 279.49 301.45 279.97 301.45 280.78C303.54 302.29 309.82 367.07 317.25 443.53L317.27 443.72H317.59C320.28 443.72 322.96 443.72 325.45 443.72H325.69L325.67 443.48C321.14 397.65 317.06 356.51 314.13 326.81C312.65 311.99 311.45 300.03 310.62 291.77C310.2 287.66 309.88 284.46 309.66 282.29C309.55 281.22 309.46 280.4 309.4 279.84C309.34 279.29 309.3 279.02 309.3 279.02L309.27 279.03Z" fill="#263238"/>
<path d="M433.61 278C433.61 277.86 377.79 277.75 308.95 277.75C240.11 277.75 184.28 277.86 184.28 278C184.28 278.14 240.09 278.25 308.95 278.25C377.81 278.25 433.61 278.14 433.61 278Z" fill="#263238"/>
<path d="M260.18 219.6L320.99 220.09C322.96 220.09 324.85 221.04 325.14 222.99L331.79 267.31H363.11C364.12 267.31 364.94 268.13 364.94 269.14C364.94 270.15 364.12 270.97 363.11 270.97H263.07L256.23 224.19C255.86 221.78 257.73 219.6 260.17 219.6H260.18Z" fill="#E0E0E0"/>
<path d="M260.18 219.6C260.18 219.6 259.85 219.56 259.22 219.69C258.61 219.83 257.65 220.21 256.9 221.23C256.52 221.73 256.24 222.4 256.15 223.17C256.05 223.95 256.28 224.78 256.37 225.67C256.62 227.46 256.92 229.52 257.25 231.84C258.59 241.13 260.52 254.52 262.89 270.99L262.91 271.15H263.07C288.96 271.17 322.98 271.19 360.12 271.21H362.73C363.13 271.23 363.69 271.21 364.11 270.95C364.54 270.71 364.88 270.31 365.05 269.85C365.41 268.92 364.98 267.79 364.11 267.32C363.69 267.07 363.14 267.05 362.74 267.06H361.45C358.02 267.06 354.63 267.06 351.29 267.06C344.6 267.06 338.07 267.06 331.79 267.06L332.02 267.26C329.63 251.39 327.4 236.58 325.39 223.3C325.32 222.46 324.94 221.55 324.27 220.98C323.61 220.39 322.77 220.08 321.94 219.95C321.09 219.82 320.29 219.89 319.49 219.86C318.69 219.86 317.89 219.85 317.1 219.84C313.94 219.82 310.89 219.8 307.95 219.78C302.06 219.74 296.62 219.71 291.68 219.68C281.81 219.63 273.94 219.59 268.52 219.56C265.83 219.56 263.75 219.56 262.32 219.55C261.63 219.55 261.09 219.55 260.72 219.55C260.36 219.55 260.18 219.57 260.18 219.57C260.18 219.57 260.36 219.59 260.72 219.6C261.09 219.6 261.62 219.62 262.32 219.63C263.74 219.65 265.82 219.68 268.52 219.72C273.94 219.78 281.81 219.87 291.68 219.98C296.62 220.03 302.06 220.08 307.95 220.14C310.89 220.17 313.95 220.2 317.1 220.23C317.89 220.23 318.69 220.24 319.49 220.25C320.29 220.28 321.11 220.22 321.88 220.34C322.65 220.46 323.42 220.75 324 221.28C324.6 221.8 324.91 222.53 324.99 223.36C326.97 236.65 329.18 251.46 331.55 267.33L331.58 267.53H331.78C338.06 267.53 344.59 267.53 351.28 267.53C354.63 267.53 358.02 267.53 361.44 267.53H362.73C363.18 267.52 363.52 267.53 363.86 267.73C364.53 268.08 364.86 268.95 364.58 269.66C364.45 270.01 364.2 270.32 363.87 270.5C363.53 270.69 363.19 270.71 362.73 270.7C361.86 270.7 360.99 270.7 360.12 270.7C322.97 270.72 288.95 270.74 263.07 270.76L263.26 270.92C260.82 254.47 258.84 241.08 257.46 231.8C257.11 229.48 256.8 227.42 256.53 225.63C256.42 224.73 256.19 223.91 256.28 223.17C256.36 222.42 256.63 221.77 256.99 221.28C257.71 220.27 258.64 219.89 259.24 219.73C259.85 219.58 260.19 219.61 260.19 219.59L260.18 219.6Z" fill="#263238"/>
<path d="M296.97 244.72C296.97 246.82 295.27 248.53 293.16 248.53C291.05 248.53 289.35 246.83 289.35 244.72C289.35 242.61 291.05 240.91 293.16 240.91C295.27 240.91 296.97 242.61 296.97 244.72Z" fill="white"/>
<path d="M329.33 270.55C329.24 270.56 327.31 259.28 325.01 245.35C322.71 231.41 320.91 220.11 321 220.09C321.09 220.08 323.02 231.36 325.32 245.3C327.62 259.23 329.42 270.54 329.33 270.56V270.55Z" fill="#263238"/>
</g>
<defs>
<clipPath id="clip0_31_2100">
<rect width="459.16" height="444.04" fill="white"/>
</clipPath>
</defs>
</svg>
