<svg width="198" height="302" viewBox="0 0 198 302" fill="none" xmlns="http://www.w3.org/2000/svg">
<rect opacity="0.05" y="84" width="198" height="218" rx="20" fill="#316CF5"/>
<path d="M48.436 180.49C49.768 180.49 50.932 180.748 51.928 181.264C52.936 181.768 53.71 182.5 54.25 183.46C54.802 184.408 55.078 185.518 55.078 186.79C55.078 188.062 54.802 189.166 54.25 190.102C53.71 191.038 52.936 191.758 51.928 192.262C50.932 192.754 49.768 193 48.436 193H44.35V180.49H48.436ZM48.436 191.326C49.9 191.326 51.022 190.93 51.802 190.138C52.582 189.346 52.972 188.23 52.972 186.79C52.972 185.338 52.582 184.204 51.802 183.388C51.022 182.572 49.9 182.164 48.436 182.164H46.402V191.326H48.436ZM58.1557 181.768C57.7837 181.768 57.4717 181.642 57.2197 181.39C56.9677 181.138 56.8417 180.826 56.8417 180.454C56.8417 180.082 56.9677 179.77 57.2197 179.518C57.4717 179.266 57.7837 179.14 58.1557 179.14C58.5157 179.14 58.8217 179.266 59.0737 179.518C59.3257 179.77 59.4517 180.082 59.4517 180.454C59.4517 180.826 59.3257 181.138 59.0737 181.39C58.8217 181.642 58.5157 181.768 58.1557 181.768ZM59.1637 183.082V193H57.1117V183.082H59.1637ZM65.4578 193.162C64.6778 193.162 63.9758 193.024 63.3518 192.748C62.7398 192.46 62.2538 192.076 61.8938 191.596C61.5338 191.104 61.3418 190.558 61.3178 189.958H63.4418C63.4778 190.378 63.6758 190.732 64.0358 191.02C64.4078 191.296 64.8698 191.434 65.4218 191.434C65.9978 191.434 66.4418 191.326 66.7538 191.11C67.0778 190.882 67.2398 190.594 67.2398 190.246C67.2398 189.874 67.0598 189.598 66.6998 189.418C66.3518 189.238 65.7938 189.04 65.0258 188.824C64.2818 188.62 63.6758 188.422 63.2078 188.23C62.7398 188.038 62.3318 187.744 61.9838 187.348C61.6478 186.952 61.4798 186.43 61.4798 185.782C61.4798 185.254 61.6358 184.774 61.9478 184.342C62.2598 183.898 62.7038 183.55 63.2798 183.298C63.8678 183.046 64.5398 182.92 65.2958 182.92C66.4238 182.92 67.3298 183.208 68.0138 183.784C68.7098 184.348 69.0818 185.122 69.1298 186.106H67.0778C67.0418 185.662 66.8618 185.308 66.5378 185.044C66.2138 184.78 65.7758 184.648 65.2238 184.648C64.6838 184.648 64.2698 184.75 63.9818 184.954C63.6938 185.158 63.5498 185.428 63.5498 185.764C63.5498 186.028 63.6458 186.25 63.8378 186.43C64.0298 186.61 64.2638 186.754 64.5398 186.862C64.8158 186.958 65.2238 187.084 65.7638 187.24C66.4838 187.432 67.0718 187.63 67.5278 187.834C67.9958 188.026 68.3978 188.314 68.7338 188.698C69.0698 189.082 69.2438 189.592 69.2558 190.228C69.2558 190.792 69.0998 191.296 68.7878 191.74C68.4758 192.184 68.0318 192.532 67.4558 192.784C66.8918 193.036 66.2258 193.162 65.4578 193.162ZM70.789 188.032C70.789 187.012 70.993 186.118 71.401 185.35C71.821 184.57 72.397 183.97 73.129 183.55C73.861 183.13 74.701 182.92 75.649 182.92C76.849 182.92 77.839 183.208 78.619 183.784C79.411 184.348 79.945 185.158 80.221 186.214H78.007C77.827 185.722 77.539 185.338 77.143 185.062C76.747 184.786 76.249 184.648 75.649 184.648C74.809 184.648 74.137 184.948 73.633 185.548C73.141 186.136 72.895 186.964 72.895 188.032C72.895 189.1 73.141 189.934 73.633 190.534C74.137 191.134 74.809 191.434 75.649 191.434C76.837 191.434 77.623 190.912 78.007 189.868H80.221C79.933 190.876 79.393 191.68 78.601 192.28C77.809 192.868 76.825 193.162 75.649 193.162C74.701 193.162 73.861 192.952 73.129 192.532C72.397 192.1 71.821 191.5 71.401 190.732C70.993 189.952 70.789 189.052 70.789 188.032ZM86.568 193.162C85.632 193.162 84.786 192.952 84.03 192.532C83.274 192.1 82.68 191.5 82.248 190.732C81.816 189.952 81.6 189.052 81.6 188.032C81.6 187.024 81.822 186.13 82.266 185.35C82.71 184.57 83.316 183.97 84.084 183.55C84.852 183.13 85.71 182.92 86.658 182.92C87.606 182.92 88.464 183.13 89.232 183.55C90 183.97 90.606 184.57 91.05 185.35C91.494 186.13 91.716 187.024 91.716 188.032C91.716 189.04 91.488 189.934 91.032 190.714C90.576 191.494 89.952 192.1 89.16 192.532C88.38 192.952 87.516 193.162 86.568 193.162ZM86.568 191.38C87.096 191.38 87.588 191.254 88.044 191.002C88.512 190.75 88.89 190.372 89.178 189.868C89.466 189.364 89.61 188.752 89.61 188.032C89.61 187.312 89.472 186.706 89.196 186.214C88.92 185.71 88.554 185.332 88.098 185.08C87.642 184.828 87.15 184.702 86.622 184.702C86.094 184.702 85.602 184.828 85.146 185.08C84.702 185.332 84.348 185.71 84.084 186.214C83.82 186.706 83.688 187.312 83.688 188.032C83.688 189.1 83.958 189.928 84.498 190.516C85.05 191.092 85.74 191.38 86.568 191.38ZM97.5785 191.164L100.387 183.082H102.565L98.7845 193H96.3365L92.5745 183.082H94.7705L97.5785 191.164ZM113.206 187.798C113.206 188.17 113.182 188.506 113.134 188.806H105.556C105.616 189.598 105.91 190.234 106.438 190.714C106.966 191.194 107.614 191.434 108.382 191.434C109.486 191.434 110.266 190.972 110.722 190.048H112.936C112.636 190.96 112.09 191.71 111.298 192.298C110.518 192.874 109.546 193.162 108.382 193.162C107.434 193.162 106.582 192.952 105.826 192.532C105.082 192.1 104.494 191.5 104.062 190.732C103.642 189.952 103.432 189.052 103.432 188.032C103.432 187.012 103.636 186.118 104.044 185.35C104.464 184.57 105.046 183.97 105.79 183.55C106.546 183.13 107.41 182.92 108.382 182.92C109.318 182.92 110.152 183.124 110.884 183.532C111.616 183.94 112.186 184.516 112.594 185.26C113.002 185.992 113.206 186.838 113.206 187.798ZM111.064 187.15C111.052 186.394 110.782 185.788 110.254 185.332C109.726 184.876 109.072 184.648 108.292 184.648C107.584 184.648 106.978 184.876 106.474 185.332C105.97 185.776 105.67 186.382 105.574 187.15H111.064ZM117.277 184.522C117.577 184.018 117.973 183.628 118.465 183.352C118.969 183.064 119.563 182.92 120.247 182.92V185.044H119.725C118.921 185.044 118.309 185.248 117.889 185.656C117.481 186.064 117.277 186.772 117.277 187.78V193H115.225V183.082H117.277V184.522ZM135.557 184.216C135.557 184.852 135.407 185.452 135.107 186.016C134.807 186.58 134.327 187.042 133.667 187.402C133.007 187.75 132.161 187.924 131.129 187.924H128.861V193H126.809V180.49H131.129C132.089 180.49 132.899 180.658 133.559 180.994C134.231 181.318 134.729 181.762 135.053 182.326C135.389 182.89 135.557 183.52 135.557 184.216ZM131.129 186.25C131.909 186.25 132.491 186.076 132.875 185.728C133.259 185.368 133.451 184.864 133.451 184.216C133.451 182.848 132.677 182.164 131.129 182.164H128.861V186.25H131.129ZM139.566 184.522C139.866 184.018 140.262 183.628 140.754 183.352C141.258 183.064 141.852 182.92 142.536 182.92V185.044H142.014C141.21 185.044 140.598 185.248 140.178 185.656C139.77 186.064 139.566 186.772 139.566 187.78V193H137.514V183.082H139.566V184.522ZM148.724 193.162C147.788 193.162 146.942 192.952 146.186 192.532C145.43 192.1 144.836 191.5 144.404 190.732C143.972 189.952 143.756 189.052 143.756 188.032C143.756 187.024 143.978 186.13 144.422 185.35C144.866 184.57 145.472 183.97 146.24 183.55C147.008 183.13 147.866 182.92 148.814 182.92C149.762 182.92 150.62 183.13 151.388 183.55C152.156 183.97 152.762 184.57 153.206 185.35C153.65 186.13 153.872 187.024 153.872 188.032C153.872 189.04 153.644 189.934 153.188 190.714C152.732 191.494 152.108 192.1 151.316 192.532C150.536 192.952 149.672 193.162 148.724 193.162ZM148.724 191.38C149.252 191.38 149.744 191.254 150.2 191.002C150.668 190.75 151.046 190.372 151.334 189.868C151.622 189.364 151.766 188.752 151.766 188.032C151.766 187.312 151.628 186.706 151.352 186.214C151.076 185.71 150.71 185.332 150.254 185.08C149.798 184.828 149.306 184.702 148.778 184.702C148.25 184.702 147.758 184.828 147.302 185.08C146.858 185.332 146.504 185.71 146.24 186.214C145.976 186.706 145.844 187.312 145.844 188.032C145.844 189.1 146.114 189.928 146.654 190.516C147.206 191.092 147.896 191.38 148.724 191.38Z" fill="#316CF5"/>
<rect x="30" y="239" width="138" height="38" rx="10" fill="#316CF5"/>
<path d="M72.53 263.112C75.12 263.112 76.674 261.614 76.674 258.772V253.2H75.316V258.716C75.316 260.886 74.308 261.866 72.544 261.866C70.78 261.866 69.786 260.886 69.786 258.716V253.2H68.386V258.772C68.386 261.614 69.954 263.112 72.53 263.112ZM83.2822 255.51C82.1902 255.51 81.2382 255.93 80.6362 256.756V255.58H79.3482V265.716H80.6922V261.88C81.3082 262.678 82.2322 263.084 83.2822 263.084C85.4522 263.084 87.0342 261.572 87.0342 259.29C87.0342 257.022 85.4522 255.51 83.2822 255.51ZM83.1702 261.908C81.7562 261.908 80.6782 260.872 80.6782 259.29C80.6782 257.722 81.7562 256.686 83.1702 256.686C84.5982 256.686 85.6762 257.722 85.6762 259.29C85.6762 260.872 84.5982 261.908 83.1702 261.908ZM94.7152 255.58V256.728C94.0852 255.916 93.0772 255.51 91.9712 255.51C89.8292 255.51 88.2052 256.952 88.2052 259.094C88.2052 261.236 89.8292 262.692 91.9712 262.692C93.0352 262.692 94.0012 262.314 94.6452 261.544V262.132C94.6452 263.812 93.8472 264.624 92.0972 264.624C91.0052 264.624 89.9272 264.246 89.2412 263.658L88.5972 264.694C89.4092 265.422 90.7812 265.8 92.1392 265.8C94.6592 265.8 95.9892 264.61 95.9892 261.992V255.58H94.7152ZM92.1252 261.516C90.6272 261.516 89.5632 260.522 89.5632 259.094C89.5632 257.652 90.6272 256.686 92.1252 256.686C93.6092 256.686 94.6732 257.652 94.6732 259.094C94.6732 260.522 93.6092 261.516 92.1252 261.516ZM99.8452 256.826V255.58H98.5572V263H99.9012V259.304C99.9012 257.68 100.797 256.798 102.239 256.798C102.337 256.798 102.435 256.798 102.547 256.812V255.51C101.245 255.51 100.321 255.958 99.8452 256.826ZM106.892 255.51C105.702 255.51 104.596 255.846 103.826 256.462L104.386 257.47C104.96 256.98 105.856 256.672 106.738 256.672C108.068 256.672 108.726 257.33 108.726 258.464V258.73H106.598C104.386 258.73 103.616 259.71 103.616 260.9C103.616 262.188 104.68 263.084 106.36 263.084C107.522 263.084 108.348 262.692 108.796 262.02V263H110.07V258.52C110.07 256.49 108.922 255.51 106.892 255.51ZM106.584 262.048C105.562 262.048 104.946 261.586 104.946 260.844C104.946 260.214 105.324 259.696 106.654 259.696H108.726V260.732C108.39 261.586 107.592 262.048 106.584 262.048ZM118.254 252.612V256.7C117.638 255.902 116.714 255.51 115.664 255.51C113.494 255.51 111.912 257.022 111.912 259.29C111.912 261.558 113.494 263.084 115.664 263.084C116.756 263.084 117.708 262.664 118.31 261.824V263H119.598V252.612H118.254ZM115.776 261.908C114.348 261.908 113.27 260.872 113.27 259.29C113.27 257.708 114.348 256.686 115.776 256.686C117.19 256.686 118.268 257.708 118.268 259.29C118.268 260.872 117.19 261.908 115.776 261.908ZM128.847 259.332C128.847 257.05 127.321 255.51 125.179 255.51C123.037 255.51 121.455 257.092 121.455 259.29C121.455 261.502 123.051 263.084 125.445 263.084C126.677 263.084 127.699 262.664 128.371 261.88L127.629 261.012C127.083 261.614 126.355 261.908 125.487 261.908C124.017 261.908 122.967 261.04 122.799 259.738H128.819C128.833 259.612 128.847 259.444 128.847 259.332ZM125.179 256.644C126.481 256.644 127.419 257.526 127.559 258.772H122.799C122.939 257.512 123.891 256.644 125.179 256.644Z" fill="white"/>
<path opacity="0.8" d="M40.184 219.038H43.356V220H39.001V210.939H40.184V219.038ZM47.7193 220.117C47.052 220.117 46.4453 219.965 45.8993 219.662C45.362 219.359 44.9373 218.93 44.6253 218.375C44.322 217.812 44.1703 217.162 44.1703 216.425C44.1703 215.697 44.3263 215.056 44.6383 214.501C44.959 213.938 45.3923 213.509 45.9383 213.214C46.4843 212.911 47.0953 212.759 47.7713 212.759C48.4473 212.759 49.0583 212.911 49.6043 213.214C50.1503 213.509 50.5793 213.933 50.8913 214.488C51.212 215.043 51.3723 215.688 51.3723 216.425C51.3723 217.162 51.2077 217.812 50.8783 218.375C50.5577 218.93 50.12 219.359 49.5653 219.662C49.0107 219.965 48.3953 220.117 47.7193 220.117ZM47.7193 219.077C48.144 219.077 48.5427 218.977 48.9153 218.778C49.288 218.579 49.587 218.28 49.8123 217.881C50.0463 217.482 50.1633 216.997 50.1633 216.425C50.1633 215.853 50.0507 215.368 49.8253 214.969C49.6 214.57 49.3053 214.276 48.9413 214.085C48.5773 213.886 48.183 213.786 47.7583 213.786C47.325 213.786 46.9263 213.886 46.5623 214.085C46.207 214.276 45.921 214.57 45.7043 214.969C45.4877 215.368 45.3793 215.853 45.3793 216.425C45.3793 217.006 45.4833 217.495 45.6913 217.894C45.908 218.293 46.194 218.592 46.5493 218.791C46.9047 218.982 47.2947 219.077 47.7193 219.077ZM54.1108 214.033C54.3188 213.626 54.6134 213.309 54.9948 213.084C55.3848 212.859 55.8571 212.746 56.4118 212.746V213.968H56.0998C54.7738 213.968 54.1108 214.687 54.1108 216.126V220H52.9278V212.876H54.1108V214.033ZM64.2774 216.165C64.2774 216.39 64.2644 216.629 64.2384 216.88H58.5444C58.5877 217.582 58.826 218.132 59.2594 218.531C59.7014 218.921 60.2344 219.116 60.8584 219.116C61.3697 219.116 61.7944 218.999 62.1324 218.765C62.479 218.522 62.7217 218.202 62.8604 217.803H64.1344C63.9437 218.488 63.5624 219.047 62.9904 219.48C62.4184 219.905 61.7077 220.117 60.8584 220.117C60.1824 220.117 59.5757 219.965 59.0384 219.662C58.5097 219.359 58.0937 218.93 57.7904 218.375C57.487 217.812 57.3354 217.162 57.3354 216.425C57.3354 215.688 57.4827 215.043 57.7774 214.488C58.072 213.933 58.4837 213.509 59.0124 213.214C59.5497 212.911 60.165 212.759 60.8584 212.759C61.5344 212.759 62.1324 212.906 62.6524 213.201C63.1724 213.496 63.571 213.903 63.8484 214.423C64.1344 214.934 64.2774 215.515 64.2774 216.165ZM63.0554 215.918C63.0554 215.467 62.9557 215.082 62.7564 214.761C62.557 214.432 62.284 214.185 61.9374 214.02C61.5994 213.847 61.2224 213.76 60.8064 213.76C60.2084 213.76 59.697 213.951 59.2724 214.332C58.8564 214.713 58.618 215.242 58.5574 215.918H63.0554ZM74.4059 212.746C74.9606 212.746 75.4546 212.863 75.8879 213.097C76.3212 213.322 76.6636 213.665 76.9149 214.124C77.1662 214.583 77.2919 215.142 77.2919 215.801V220H76.1219V215.97C76.1219 215.259 75.9442 214.718 75.5889 214.345C75.2422 213.964 74.7699 213.773 74.1719 213.773C73.5566 213.773 73.0669 213.972 72.7029 214.371C72.3389 214.761 72.1569 215.329 72.1569 216.074V220H70.9869V215.97C70.9869 215.259 70.8092 214.718 70.4539 214.345C70.1072 213.964 69.6349 213.773 69.0369 213.773C68.4216 213.773 67.9319 213.972 67.5679 214.371C67.2039 214.761 67.0219 215.329 67.0219 216.074V220H65.8389V212.876H67.0219V213.903C67.2559 213.53 67.5679 213.244 67.9579 213.045C68.3566 212.846 68.7942 212.746 69.2709 212.746C69.8689 212.746 70.3976 212.88 70.8569 213.149C71.3162 213.418 71.6586 213.812 71.8839 214.332C72.0832 213.829 72.4126 213.439 72.8719 213.162C73.3312 212.885 73.8426 212.746 74.4059 212.746ZM83.8813 210.939V220H82.6983V210.939H83.8813ZM87.0805 214.189C87.3145 213.782 87.6612 213.444 88.1205 213.175C88.5885 212.898 89.1302 212.759 89.7455 212.759C90.3782 212.759 90.9502 212.911 91.4615 213.214C91.9815 213.517 92.3888 213.946 92.6835 214.501C92.9782 215.047 93.1255 215.684 93.1255 216.412C93.1255 217.131 92.9782 217.773 92.6835 218.336C92.3888 218.899 91.9815 219.337 91.4615 219.649C90.9502 219.961 90.3782 220.117 89.7455 220.117C89.1388 220.117 88.6015 219.983 88.1335 219.714C87.6742 219.437 87.3232 219.094 87.0805 218.687V223.38H85.8975V212.876H87.0805V214.189ZM91.9165 216.412C91.9165 215.875 91.8082 215.407 91.5915 215.008C91.3748 214.609 91.0802 214.306 90.7075 214.098C90.3435 213.89 89.9405 213.786 89.4985 213.786C89.0652 213.786 88.6622 213.894 88.2895 214.111C87.9255 214.319 87.6308 214.627 87.4055 215.034C87.1888 215.433 87.0805 215.896 87.0805 216.425C87.0805 216.962 87.1888 217.435 87.4055 217.842C87.6308 218.241 87.9255 218.548 88.2895 218.765C88.6622 218.973 89.0652 219.077 89.4985 219.077C89.9405 219.077 90.3435 218.973 90.7075 218.765C91.0802 218.548 91.3748 218.241 91.5915 217.842C91.8082 217.435 91.9165 216.958 91.9165 216.412ZM97.2046 220.117C96.6586 220.117 96.169 220.026 95.7356 219.844C95.3023 219.653 94.96 219.393 94.7086 219.064C94.4573 218.726 94.3186 218.34 94.2926 217.907H95.5146C95.5493 218.262 95.714 218.553 96.0086 218.778C96.312 219.003 96.7063 219.116 97.1916 219.116C97.6423 219.116 97.9976 219.016 98.2576 218.817C98.5176 218.618 98.6476 218.366 98.6476 218.063C98.6476 217.751 98.509 217.521 98.2316 217.374C97.9543 217.218 97.5253 217.066 96.9446 216.919C96.416 216.78 95.9826 216.642 95.6446 216.503C95.3153 216.356 95.0293 216.143 94.7866 215.866C94.5526 215.58 94.4356 215.207 94.4356 214.748C94.4356 214.384 94.544 214.05 94.7606 213.747C94.9773 213.444 95.285 213.205 95.6836 213.032C96.0823 212.85 96.5373 212.759 97.0486 212.759C97.8373 212.759 98.4743 212.958 98.9596 213.357C99.445 213.756 99.705 214.302 99.7396 214.995H98.5566C98.5306 214.622 98.379 214.323 98.1016 214.098C97.833 213.873 97.469 213.76 97.0096 213.76C96.585 213.76 96.247 213.851 95.9956 214.033C95.7443 214.215 95.6186 214.453 95.6186 214.748C95.6186 214.982 95.6923 215.177 95.8396 215.333C95.9956 215.48 96.1863 215.602 96.4116 215.697C96.6456 215.784 96.9663 215.883 97.3736 215.996C97.885 216.135 98.301 216.273 98.6216 216.412C98.9423 216.542 99.2153 216.741 99.4406 217.01C99.6746 217.279 99.796 217.63 99.8046 218.063C99.8046 218.453 99.6963 218.804 99.4796 219.116C99.263 219.428 98.9553 219.675 98.5566 219.857C98.1666 220.03 97.716 220.117 97.2046 220.117ZM107.793 212.876V220H106.61V218.947C106.384 219.311 106.068 219.597 105.661 219.805C105.262 220.004 104.82 220.104 104.335 220.104C103.78 220.104 103.282 219.991 102.84 219.766C102.398 219.532 102.047 219.185 101.787 218.726C101.535 218.267 101.41 217.708 101.41 217.049V212.876H102.58V216.893C102.58 217.595 102.757 218.137 103.113 218.518C103.468 218.891 103.953 219.077 104.569 219.077C105.201 219.077 105.7 218.882 106.064 218.492C106.428 218.102 106.61 217.534 106.61 216.789V212.876H107.793ZM118.357 212.746C118.912 212.746 119.406 212.863 119.839 213.097C120.272 213.322 120.615 213.665 120.866 214.124C121.117 214.583 121.243 215.142 121.243 215.801V220H120.073V215.97C120.073 215.259 119.895 214.718 119.54 214.345C119.193 213.964 118.721 213.773 118.123 213.773C117.508 213.773 117.018 213.972 116.654 214.371C116.29 214.761 116.108 215.329 116.108 216.074V220H114.938V215.97C114.938 215.259 114.76 214.718 114.405 214.345C114.058 213.964 113.586 213.773 112.988 213.773C112.373 213.773 111.883 213.972 111.519 214.371C111.155 214.761 110.973 215.329 110.973 216.074V220H109.79V212.876H110.973V213.903C111.207 213.53 111.519 213.244 111.909 213.045C112.308 212.846 112.745 212.746 113.222 212.746C113.82 212.746 114.349 212.88 114.808 213.149C115.267 213.418 115.61 213.812 115.835 214.332C116.034 213.829 116.364 213.439 116.823 213.162C117.282 212.885 117.794 212.746 118.357 212.746ZM129.47 210.939C130.458 210.939 131.312 211.125 132.031 211.498C132.759 211.862 133.314 212.386 133.695 213.071C134.085 213.756 134.28 214.562 134.28 215.489C134.28 216.416 134.085 217.222 133.695 217.907C133.314 218.583 132.759 219.103 132.031 219.467C131.312 219.822 130.458 220 129.47 220H126.649V210.939H129.47ZM129.47 219.025C130.64 219.025 131.533 218.717 132.148 218.102C132.764 217.478 133.071 216.607 133.071 215.489C133.071 214.362 132.759 213.483 132.135 212.85C131.52 212.217 130.632 211.901 129.47 211.901H127.832V219.025H129.47ZM138.948 220.117C138.281 220.117 137.674 219.965 137.128 219.662C136.591 219.359 136.166 218.93 135.854 218.375C135.551 217.812 135.399 217.162 135.399 216.425C135.399 215.697 135.555 215.056 135.867 214.501C136.188 213.938 136.621 213.509 137.167 213.214C137.713 212.911 138.324 212.759 139 212.759C139.676 212.759 140.287 212.911 140.833 213.214C141.379 213.509 141.808 213.933 142.12 214.488C142.441 215.043 142.601 215.688 142.601 216.425C142.601 217.162 142.436 217.812 142.107 218.375C141.786 218.93 141.349 219.359 140.794 219.662C140.239 219.965 139.624 220.117 138.948 220.117ZM138.948 219.077C139.373 219.077 139.771 218.977 140.144 218.778C140.517 218.579 140.816 218.28 141.041 217.881C141.275 217.482 141.392 216.997 141.392 216.425C141.392 215.853 141.279 215.368 141.054 214.969C140.829 214.57 140.534 214.276 140.17 214.085C139.806 213.886 139.412 213.786 138.987 213.786C138.554 213.786 138.155 213.886 137.791 214.085C137.436 214.276 137.15 214.57 136.933 214.969C136.716 215.368 136.608 215.853 136.608 216.425C136.608 217.006 136.712 217.495 136.92 217.894C137.137 218.293 137.423 218.592 137.778 218.791C138.133 218.982 138.523 219.077 138.948 219.077ZM145.339 210.38V220H144.156V210.38H145.339ZM150.462 220.117C149.795 220.117 149.188 219.965 148.642 219.662C148.105 219.359 147.68 218.93 147.368 218.375C147.065 217.812 146.913 217.162 146.913 216.425C146.913 215.697 147.069 215.056 147.381 214.501C147.702 213.938 148.135 213.509 148.681 213.214C149.227 212.911 149.838 212.759 150.514 212.759C151.19 212.759 151.801 212.911 152.347 213.214C152.893 213.509 153.322 213.933 153.634 214.488C153.955 215.043 154.115 215.688 154.115 216.425C154.115 217.162 153.951 217.812 153.621 218.375C153.301 218.93 152.863 219.359 152.308 219.662C151.754 219.965 151.138 220.117 150.462 220.117ZM150.462 219.077C150.887 219.077 151.286 218.977 151.658 218.778C152.031 218.579 152.33 218.28 152.555 217.881C152.789 217.482 152.906 216.997 152.906 216.425C152.906 215.853 152.794 215.368 152.568 214.969C152.343 214.57 152.048 214.276 151.684 214.085C151.32 213.886 150.926 213.786 150.501 213.786C150.068 213.786 149.669 213.886 149.305 214.085C148.95 214.276 148.664 214.57 148.447 214.969C148.231 215.368 148.122 215.853 148.122 216.425C148.122 217.006 148.226 217.495 148.434 217.894C148.651 218.293 148.937 218.592 149.292 218.791C149.648 218.982 150.038 219.077 150.462 219.077ZM156.854 214.033C157.062 213.626 157.357 213.309 157.738 213.084C158.128 212.859 158.6 212.746 159.155 212.746V213.968H158.843C157.517 213.968 156.854 214.687 156.854 216.126V220H155.671V212.876H156.854V214.033Z" fill="#316CF5"/>
<path d="M131.531 94.949C131.531 94.949 146.095 113.42 131.11 140.818C129.715 143.37 126.064 143.423 124.578 140.923L115.112 124.991C113.593 122.439 113.224 119.36 114.099 116.518L118.566 101.935L131.531 94.949Z" fill="url(#paint0_linear_24_389)"/>
<path d="M98.3052 65.2557C98.3052 65.2557 78.3211 52.8495 52.7719 70.801C50.3907 72.4718 50.7459 76.1029 53.3968 77.3001L70.2827 84.9241C72.9928 86.1476 76.0911 86.1673 78.8144 84.9899L92.8059 78.9183L98.3052 65.2557Z" fill="#316CF5"/>
<path d="M133.189 93.094C133.189 93.094 147.752 111.565 132.768 138.963C131.373 141.515 127.722 141.568 126.236 139.068L116.77 123.143C115.25 120.59 114.882 117.512 115.757 114.67L120.223 100.086L133.189 93.094Z" fill="url(#paint1_linear_24_389)"/>
<path d="M99.9629 63.4007C99.9629 63.4007 79.9788 50.9945 54.4296 68.946C52.0484 70.6168 52.4036 74.2479 55.0545 75.4451L71.9404 83.0691C74.6506 84.2926 77.7422 84.3123 80.4721 83.1349L94.4637 77.0633L99.9629 63.4007Z" fill="url(#paint2_linear_24_389)"/>
<path d="M118.895 20.2157C142.115 -0.597253 177.919 9.55268 177.939 9.59215C177.985 9.60531 192.069 44.0546 173.986 69.4524C157.58 92.4888 123.243 107.895 116.651 110.697C115.941 110.999 114.796 111.401 114.428 110.723C107.232 97.5868 97.0488 88.9564 84.4979 83.9833C83.8006 83.7071 84.0966 82.5493 84.3071 81.8323C86.3266 75.0701 97.7987 39.1276 118.895 20.2157Z" fill="url(#paint3_linear_24_389)"/>
<path d="M162.402 26.978C154.363 19.7948 144.332 13.1246 135.156 10.671C153.146 4.27055 172.157 8.14503 176.847 9.30276C177.544 9.47379 178.104 9.9803 178.354 10.6513C180.024 15.1835 186.004 33.6416 181.656 52.2377C178.781 44.3375 170.44 34.1678 162.402 26.978Z" fill="url(#paint4_linear_24_389)"/>
<path d="M121.138 35.4177C112.803 44.7388 114.441 59.8026 124.795 69.0579C135.149 78.3132 150.298 78.254 158.633 68.9329C166.967 59.6118 165.329 44.5481 154.975 35.2928C144.615 26.0374 129.465 26.0966 121.138 35.4177Z" fill="url(#paint5_linear_24_389)"/>
<path d="M131.018 54.5007C141.615 45.0809 151.022 47.153 160.902 42.8049C165.533 51.4485 164.961 61.8418 158.626 68.9264C150.292 78.2475 135.142 78.3067 124.789 69.0514C123.94 68.2949 123.157 67.4989 122.427 66.6701C124.111 62.6378 126.38 58.6251 131.018 54.5007Z" fill="url(#paint6_linear_24_389)"/>
<path d="M122.697 36.8189C115.06 45.3637 116.559 59.1711 126.045 67.6502C135.537 76.1293 149.417 76.0832 157.06 67.5318C164.698 58.9869 163.198 45.1796 153.712 36.7004C144.22 28.2213 130.334 28.274 122.697 36.8189Z" fill="url(#paint7_linear_24_389)"/>
<path d="M124.913 38.7988C118.256 46.2452 119.566 58.2699 127.834 65.657C136.103 73.0442 148.193 72.9981 154.85 65.5583C161.507 58.112 160.198 46.0873 151.93 38.7002C143.661 31.3064 131.564 31.3525 124.913 38.7988Z" fill="#316CF5"/>
<path d="M83.7809 83.4375C81.5049 85.9832 86.6424 94.2847 95.253 101.981C103.864 109.677 112.685 113.854 114.961 111.309C117.237 108.763 112.099 100.462 103.489 92.7652C94.8781 85.0689 86.0569 80.8918 83.7809 83.4375Z" fill="url(#paint8_linear_24_389)"/>
<path d="M98.1079 92.1797L104.798 98.1592C108.356 101.343 109.633 106.362 108.021 110.861L106.495 115.124C105.929 116.696 103.962 117.196 102.719 116.084L80.5313 96.2515C79.2881 95.1398 79.5643 93.1204 81.0641 92.3902L85.1294 90.3971C89.4117 88.2921 94.5426 88.9959 98.1079 92.1797Z" fill="url(#paint9_linear_24_389)"/>
<path d="M79.5446 93.778C77.4002 96.179 81.4194 103.277 88.5237 109.625C95.628 115.979 103.127 119.176 105.278 116.775C107.422 114.374 103.403 107.276 96.2989 100.928C89.1881 94.5805 81.6891 91.377 79.5446 93.778Z" fill="url(#paint10_linear_24_389)"/>
<path d="M82.6297 96.5343C80.9983 98.3564 84.0571 103.75 89.4577 108.579C94.8583 113.407 100.555 115.841 102.186 114.012C103.818 112.19 100.759 106.796 95.3582 101.968C89.9642 97.146 84.261 94.7122 82.6297 96.5343Z" fill="url(#paint11_linear_24_389)"/>
<g opacity="0.3">
<path opacity="0.3" d="M131.018 54.5006C140.03 46.4885 148.18 46.7911 156.495 44.3835C160.376 51.3431 159.981 59.8091 154.844 65.5517C148.187 72.9981 136.096 73.0441 127.828 65.6504C126.617 64.5716 125.558 63.3941 124.65 62.1443C126.144 59.6183 128.117 57.0792 131.018 54.5006Z" fill="#769EFB"/>
</g>
<path d="M43.1614 139.219C43.1614 139.219 64.698 128.175 80.4327 109.046C80.6103 108.829 82.7218 106.421 85.09 103.336C86.4516 101.56 86.8463 100.922 86.9581 101.027C87.9975 101.961 61.1787 163.644 34.3666 162.15C24.9929 161.624 15.6586 155.572 15.9349 151.31C16.2243 146.975 26.2295 147.896 43.1614 139.219Z" fill="url(#paint12_linear_24_389)"/>
<path d="M86.0109 101.922C87.2147 104.152 74.9467 113.598 63.9547 119.853C62.0405 120.945 56.9557 123.761 49.8119 126.524C38.0438 131.076 31.025 134.233 28.1964 131.391C26.348 129.536 26.6966 125.59 28.0714 123.011C30.8737 117.762 36.9387 120.09 43.122 114.413C48.1213 109.829 46.5295 106.125 50.9499 103.823C55.1862 101.619 58.1858 104.204 65.9939 104.724C78.1173 105.526 85.1032 100.244 86.0109 101.922Z" fill="url(#paint13_linear_24_389)"/>
<path d="M93.7993 107.579C85.136 114.19 81.3207 120.728 79.4328 125.524C77.1963 131.22 77.808 134.148 74.2033 138.917C70.6511 143.613 67.1516 144.607 65.4545 149.626C65.0729 150.744 63.4153 155.651 65.5794 158.006C69.2368 161.993 83.1297 157.894 91.076 149.086C92.635 147.356 98.6802 140.653 97.5159 133.128C96.9436 129.444 95.1017 128.477 93.6019 124.294C92.0429 119.939 91.7009 114.479 93.7993 107.579Z" fill="url(#paint14_linear_24_389)"/>
<path d="M84.7546 63.861C84.7546 63.861 83.6495 64.2031 83.939 64.6833C84.2284 65.1635 85.9716 67.229 86.3597 67.3277C86.7478 67.4198 86.7412 65.7818 86.3991 65.499C86.0637 65.203 85.1888 63.7624 84.7546 63.861Z" fill="url(#paint15_linear_24_389)"/>
<path d="M80.9723 42.673C82.2287 43.2782 86.6623 45.5871 88.6094 50.6917C89.0764 51.9218 90.0763 54.6385 89.2606 58.0131C88.366 61.7428 85.84 63.8741 84.998 64.5319C84.7218 64.5319 84.4521 64.5319 84.1758 64.5319C83.3733 63.486 83.1891 62.6111 83.1562 62.0322C83.0641 60.4009 84.11 59.6576 84.4915 57.4473C84.5902 56.8882 84.7744 55.8226 84.531 54.7964C83.8666 51.9678 80.4526 51.6258 75.8809 47.5539C74.2298 46.0805 72.9931 44.9622 73.2694 44.0478C73.7496 42.4428 78.591 42.5415 80.9723 42.673Z" fill="#181819"/>
<g opacity="0.3">
<path opacity="0.3" d="M85.4388 59.8354C86.6886 56.9542 88.6357 55.415 87.9713 53.7047C87.4319 52.3167 85.8466 52.5535 84.0574 50.488C82.7812 49.0145 82.6891 47.8502 82.1169 46.7385C81.3867 45.3177 79.7619 43.7455 75.9269 42.7654C74.5718 42.9496 73.4865 43.3245 73.2694 44.0481C72.9997 44.9625 74.2298 46.0873 75.8809 47.5542C80.4526 51.626 83.8666 51.9747 84.531 54.7966C84.7744 55.8162 84.5902 56.8885 84.4915 57.4476C84.11 59.6512 83.0707 60.4011 83.1562 62.0325C83.1891 62.6114 83.3733 63.4863 84.1758 64.5322C84.235 64.5322 84.3008 64.5322 84.36 64.5322C84.4718 62.5522 84.9323 61.0063 85.4388 59.8354Z" fill="url(#paint16_linear_24_389)"/>
</g>
<path d="M69.4738 75.2346C69.3948 75.0438 68.316 75.3267 68.4673 76.0108C68.5923 76.5962 68.9081 77.55 69.3422 79.0893C69.4541 79.4906 70.1184 79.8852 70.4079 79.9379C70.7302 79.9971 70.9867 79.6748 70.842 79.3853C70.6447 78.9775 70.1513 77.9053 70.204 77.254C70.296 76.0502 70.1974 74.8004 69.4738 75.2346Z" fill="url(#paint17_linear_24_389)"/>
<path d="M68.7963 73.8398L69.283 76.004C69.283 76.004 69.5725 76.4842 70.0527 76.1948L70.3816 74.024L68.7963 73.8398Z" fill="url(#paint18_linear_24_389)"/>
<path d="M79.2882 43.6928C77.3674 48.6263 75.4861 54.119 73.8021 60.1379C72.3352 65.4069 71.2038 70.3931 70.3355 75.0372C69.8882 74.9254 69.4343 74.8136 68.987 74.7017C68.2634 73.9387 67.1057 72.5047 66.5663 70.4194C66.415 69.8405 66.0137 68.0776 66.7834 64.5386C67.428 61.5719 68.1253 60.9075 68.8817 58.5066C70.3684 53.8098 69.1251 51.8825 70.7104 44.4295C71.1775 42.2325 71.5393 41.226 72.4339 40.759C74.802 39.5486 78.7488 43.1797 79.2882 43.6928Z" fill="#181819"/>
<path d="M92.5298 40.6076C92.5298 40.6076 92.7732 40.4629 93.6349 40.2655C94.5032 40.0682 94.9834 40.601 94.9374 41.6074C94.8914 42.6205 94.6085 43.7782 94.3191 43.298C94.0296 42.8178 93.5889 41.2785 92.9179 41.5219C92.247 41.7653 92.5298 40.6076 92.5298 40.6076Z" fill="url(#paint19_linear_24_389)"/>
<path d="M52.8906 16.3214C52.8906 16.3214 52.7919 15.8872 52.7919 15.0715C52.7919 14.2493 52.4959 13.7691 51.9696 13.4336C51.4368 13.0981 50.7658 13.3415 50.2791 12.8153C49.9765 12.4864 49.7989 13.927 50.6737 14.5453C51.5421 15.1702 51.9828 16.7095 51.9828 16.7095L52.8906 16.3214Z" fill="url(#paint20_linear_24_389)"/>
<path d="M76.9136 25.1032C77.282 25.0242 78.2621 25.3663 80.1961 26.728C83.8929 29.3263 84.4587 32.3193 87.2149 35.6149C88.3397 36.9634 90.1421 38.7329 93.0101 40.3182C93.0628 40.9431 93.1088 41.568 93.1614 42.1995C89.9184 42.4956 87.7016 41.8114 86.2676 41.1142C81.959 39.0289 80.8999 35.0295 76.3216 34.1612C75.4204 33.9901 74.7692 34.0164 74.2495 33.4442C72.5984 31.6483 74.2101 25.6689 76.9136 25.1032Z" fill="#316CF5"/>
<path d="M83.6232 43.5348C83.7745 42.5744 81.6234 42.1666 80.8143 39.9761C80.2289 38.3776 80.9262 37.3778 81.1827 35.1544C81.4327 33.0033 81.4919 30.2406 79.9526 27.6883C79.7684 27.3857 79.4856 26.9186 79.0317 26.4384C76.7688 24.0572 73.414 24.7216 68.7107 24.3072C65.7572 24.044 61.567 23.6691 58.0017 21.2615C55.5415 19.5973 54.0746 17.4068 53.2128 15.7886C52.5682 15.9004 51.9301 16.0188 51.2855 16.1306C51.3118 20.163 52.5221 22.5903 53.6273 24.0703C57.0676 28.6684 62.1327 27.5172 65.027 32.6087C66.711 35.5688 66.5531 38.6934 66.54 38.917C66.4873 39.7261 66.4018 41.1338 65.6388 42.581C63.6522 46.3436 59.1528 46.4949 59.1989 47.9487C59.2383 49.1262 62.2379 50.5207 65.3296 50.4812C69.8816 50.4286 70.592 47.3106 76.782 45.528C80.4854 44.4689 83.4521 44.6465 83.6232 43.5348Z" fill="#316CF5"/>
<path d="M70.7368 22.7615C70.7368 22.7615 71.1249 23.6758 70.2566 23.8732C69.3883 24.0705 67.8753 24.1297 67.8753 24.1297L73.9271 26.4189L74.9336 24.827C74.9336 24.827 72.7628 24.4981 72.6181 24.2547C72.4734 24.0113 71.8879 23.0509 71.8879 23.0509L70.7368 22.7615Z" fill="url(#paint21_linear_24_389)"/>
<path d="M72.1577 21.6694C72.8089 21.2287 72.9339 21.3011 73.1905 21.0182C73.7693 20.3736 73.8351 19.1895 73.4602 18.9659C73.2168 18.8211 72.9866 19.1961 72.138 19.5053C71.0921 19.8868 70.7566 19.5776 70.033 20.0052C69.862 20.1039 69.0989 20.5578 69.066 21.1892C69.0266 21.9983 70.1975 22.7746 70.9803 22.5641C71.3552 22.4588 71.3552 22.2154 72.1577 21.6694Z" fill="#181819"/>
<path d="M70.7303 22.8797C70.7303 22.8797 71.3223 23.6559 72.3221 23.4783C73.2168 23.3204 73.1312 21.2944 72.5129 20.926C72.309 20.801 71.9143 20.7879 71.6117 20.9063C71.4341 20.9786 71.3815 21.0642 71.0855 21.1694C70.8158 21.2747 70.7303 21.2483 70.6579 21.3273C70.5592 21.4259 70.5066 21.6562 70.75 22.2219C70.5592 22.064 70.3487 22.0246 70.2106 22.1035C70.1909 22.1166 70.1317 22.1627 70.1053 22.235C69.9869 22.4916 70.2303 22.7613 70.7303 22.8797Z" fill="url(#paint22_linear_24_389)"/>
<g opacity="0.3">
<path opacity="0.3" d="M72.5195 43.3572C72.6313 41.989 69.8356 41.5746 69.5659 39.5617C69.2831 37.4435 72.2103 36.5423 72.5787 33.9637C73.0391 30.7997 69.2765 27.8527 68.8489 27.5238C64.3232 24.0572 60.258 26.695 55.2521 23.7678C54.193 23.1494 53.0945 22.2811 52.0617 21.051C52.509 22.3601 53.0879 23.3402 53.6404 24.0835C57.0808 28.6816 62.1459 27.5304 65.0402 32.6218C66.7242 35.5819 66.5663 38.7065 66.5532 38.9302C66.5005 39.7393 66.415 41.147 65.652 42.5942C63.6654 46.3568 59.166 46.5081 59.2121 47.9618C59.2449 48.9683 61.442 50.1326 64.0075 50.422C64.31 49.488 64.7771 48.5736 65.4941 47.7711C68.0793 44.8636 72.3813 45.0478 72.5195 43.3572Z" fill="url(#paint23_linear_24_389)"/>
</g>
<path d="M50.0293 9.98684C36.8798 3.39563 31.0648 29.1882 18.1455 23.6231C17.5864 23.3863 17.0272 22.7154 16.9088 22.2154C15.9484 17.9594 14.988 13.7034 14.0211 9.44744C13.9092 8.94751 14.3039 8.8883 14.8828 9.22379C28.3349 17.1306 34.6169 -6.58328 48.1809 1.83663C48.5887 2.0866 48.9768 2.55364 49.036 2.82334C49.5688 5.1717 50.1017 7.52665 50.6345 9.87501C50.7003 10.1579 50.424 10.1842 50.0293 9.98684Z" fill="#316CF5"/>
<g opacity="0.3">
<path opacity="0.3" d="M41.3461 4.79022C37.3006 5.62564 35.7679 11.6446 32.2684 13.1838C30.0187 14.0982 29.6898 12.2366 26.8217 11.6643C25.0193 11.2367 23.0196 11.2104 20.8883 10.8486C19.0333 10.9473 17.0533 10.5 14.8826 9.22383C14.3037 8.88177 13.9024 8.94098 14.0208 9.44749C14.9878 13.7035 15.9482 17.9595 16.9152 22.2089C17.027 22.7088 17.5927 23.3798 18.1518 23.6166C30.8672 29.1027 36.702 4.19162 49.4239 9.69745C45.9047 5.32962 43.2405 4.41528 41.3461 4.79022Z" fill="#316CF5"/>
</g>
<path d="M51.8512 15.2097C51.6999 15.2097 51.5617 15.1045 51.5223 14.9532L48.4766 2.00757C48.4371 1.82997 48.549 1.64578 48.7266 1.60631C48.9042 1.56684 49.0884 1.67867 49.1278 1.85628L52.1735 14.7953C52.2129 14.9729 52.1011 15.1571 51.9235 15.1966C51.9038 15.2031 51.8775 15.2097 51.8512 15.2097Z" fill="url(#paint24_linear_24_389)"/>
<defs>
<linearGradient id="paint0_linear_24_389" x1="141.136" y1="129.751" x2="114.774" y2="106.188" gradientUnits="userSpaceOnUse">
<stop stop-color="#444B8C"/>
<stop offset="0.9964" stop-color="#26264F"/>
</linearGradient>
<linearGradient id="paint1_linear_24_389" x1="142.794" y1="127.896" x2="116.431" y2="104.334" gradientUnits="userSpaceOnUse">
<stop stop-color="#88ACFF"/>
<stop offset="0.9964" stop-color="#316CF5"/>
</linearGradient>
<linearGradient id="paint2_linear_24_389" x1="106.29" y1="77.2586" x2="98.7584" y2="52.0107" gradientUnits="userSpaceOnUse">
<stop stop-color="#88ACFF"/>
<stop offset="0.9964" stop-color="#316CF5"/>
</linearGradient>
<linearGradient id="paint3_linear_24_389" x1="134.519" y1="89.1198" x2="131.177" y2="-20.5147" gradientUnits="userSpaceOnUse">
<stop stop-color="#316CF5"/>
<stop offset="0.9964" stop-color="#8DAEFA"/>
</linearGradient>
<linearGradient id="paint4_linear_24_389" x1="191.334" y1="41.4004" x2="144.834" y2="-0.16009" gradientUnits="userSpaceOnUse">
<stop stop-color="#7BA3FF"/>
<stop offset="0.9964" stop-color="#316CF5"/>
</linearGradient>
<linearGradient id="paint5_linear_24_389" x1="158.626" y1="68.9297" x2="121.134" y2="35.4203" gradientUnits="userSpaceOnUse">
<stop offset="0.00359712" stop-color="#EBEFF2"/>
<stop offset="1" stop-color="white"/>
</linearGradient>
<linearGradient id="paint6_linear_24_389" x1="158.077" y1="69.5442" x2="120.585" y2="36.0345" gradientUnits="userSpaceOnUse">
<stop offset="0.00359712" stop-color="#EBEFF2"/>
<stop offset="1" stop-color="white"/>
</linearGradient>
<linearGradient id="paint7_linear_24_389" x1="144.763" y1="34.9848" x2="137.04" y2="62.1719" gradientUnits="userSpaceOnUse">
<stop offset="0.00359712" stop-color="#EBEFF2"/>
<stop offset="1" stop-color="white"/>
</linearGradient>
<linearGradient id="paint8_linear_24_389" x1="87.9165" y1="112.35" x2="100.278" y2="96.187" gradientUnits="userSpaceOnUse">
<stop stop-color="#FFC444"/>
<stop offset="0.9964" stop-color="#F36F56"/>
</linearGradient>
<linearGradient id="paint9_linear_24_389" x1="109.384" y1="112.154" x2="83.6857" y2="89.1856" gradientUnits="userSpaceOnUse">
<stop stop-color="#A8C2FF"/>
<stop offset="0.9964" stop-color="#316CF5"/>
</linearGradient>
<linearGradient id="paint10_linear_24_389" x1="95.2898" y1="98.6246" x2="84.6161" y2="123.282" gradientUnits="userSpaceOnUse">
<stop stop-color="#AEC7FF"/>
<stop offset="0.9964" stop-color="#316CF5"/>
</linearGradient>
<linearGradient id="paint11_linear_24_389" x1="94.5986" y1="100.221" x2="86.4866" y2="118.96" gradientUnits="userSpaceOnUse">
<stop stop-color="#316CF5"/>
<stop offset="0.9964" stop-color="#1F1F36"/>
</linearGradient>
<linearGradient id="paint12_linear_24_389" x1="89.245" y1="115.24" x2="42.9228" y2="217.262" gradientUnits="userSpaceOnUse">
<stop stop-color="#316CF5"/>
<stop offset="0.9964" stop-color="#D7E3FF" stop-opacity="0"/>
</linearGradient>
<linearGradient id="paint13_linear_24_389" x1="87.9729" y1="108.773" x2="72.0714" y2="166.528" gradientUnits="userSpaceOnUse">
<stop stop-color="#316CF5"/>
<stop offset="0.9964" stop-color="#D7E3FF" stop-opacity="0"/>
</linearGradient>
<linearGradient id="paint14_linear_24_389" x1="98.7178" y1="119.662" x2="47.3892" y2="181.792" gradientUnits="userSpaceOnUse">
<stop stop-color="#316CF5"/>
<stop offset="0.9964" stop-color="#D7E3FF" stop-opacity="0"/>
</linearGradient>
<linearGradient id="paint15_linear_24_389" x1="83.7341" y1="65.1313" x2="86.8782" y2="65.9055" gradientUnits="userSpaceOnUse">
<stop stop-color="#AB316D"/>
<stop offset="1" stop-color="#792D3D"/>
</linearGradient>
<linearGradient id="paint16_linear_24_389" x1="73.2321" y1="53.6523" x2="88.1087" y2="53.6523" gradientUnits="userSpaceOnUse">
<stop stop-color="#444B8C"/>
<stop offset="0.9964" stop-color="#26264F"/>
</linearGradient>
<linearGradient id="paint17_linear_24_389" x1="68.1465" y1="77.0645" x2="71.3168" y2="77.8451" gradientUnits="userSpaceOnUse">
<stop stop-color="#AB316D"/>
<stop offset="1" stop-color="#792D3D"/>
</linearGradient>
<linearGradient id="paint18_linear_24_389" x1="68.839" y1="70.513" x2="70.5529" y2="78.3" gradientUnits="userSpaceOnUse">
<stop offset="0.003597" stop-color="#F36F56"/>
<stop offset="1" stop-color="#FFC444"/>
</linearGradient>
<linearGradient id="paint19_linear_24_389" x1="92.103" y1="26.3344" x2="94.4446" y2="48.1194" gradientUnits="userSpaceOnUse">
<stop offset="0.003597" stop-color="#F36F56"/>
<stop offset="1" stop-color="#FFC444"/>
</linearGradient>
<linearGradient id="paint20_linear_24_389" x1="50.1944" y1="29.012" x2="51.2291" y2="17.3326" gradientUnits="userSpaceOnUse">
<stop offset="0.003597" stop-color="#F36F56"/>
<stop offset="1" stop-color="#FFC444"/>
</linearGradient>
<linearGradient id="paint21_linear_24_389" x1="72.4547" y1="16.9365" x2="70.7789" y2="29.004" gradientUnits="userSpaceOnUse">
<stop offset="0.003597" stop-color="#F36F56"/>
<stop offset="1" stop-color="#FFC444"/>
</linearGradient>
<linearGradient id="paint22_linear_24_389" x1="69.3879" y1="18.2665" x2="72.2957" y2="23.3755" gradientUnits="userSpaceOnUse">
<stop offset="0.003597" stop-color="#F36F56"/>
<stop offset="1" stop-color="#FFC444"/>
</linearGradient>
<linearGradient id="paint23_linear_24_389" x1="77.2332" y1="12.7147" x2="51.2405" y2="46.8217" gradientUnits="userSpaceOnUse">
<stop stop-color="#FFC444"/>
<stop offset="0.9964" stop-color="#F36F56"/>
</linearGradient>
<linearGradient id="paint24_linear_24_389" x1="47.0652" y1="7.59776" x2="53.5935" y2="9.20528" gradientUnits="userSpaceOnUse">
<stop stop-color="#444B8C"/>
<stop offset="0.9964" stop-color="#26264F"/>
</linearGradient>
</defs>
</svg>
